{"accessors":[{"bufferView":0,"byteOffset":0,"componentType":5126,"count":670,"max":[4.0,1.0,0.0],"min":[0.0,0.0,0.0],"type":"VEC3"},{"bufferView":1,"byteOffset":0,"componentType":5125,"count":3672,"type":"SCALAR"}],"asset":{"generator":"VTK","version":"2.0"},"bufferViews":[{"buffer":0,"byteLength":8040,"byteOffset":0,"target":34962},{"buffer":1,"byteLength":14688,"byteOffset":0,"target":34963}],"buffers":[{"byteLength":8040,"uri":"data:application/octet-stream;base64,"},{"byteLength":14688,"uri":"data:application/octet-stream;base64,"}],"cameras":[{"orthographic":{"xmag":3.1529631254723283,"ymag":2.0615528128088303,"zfar":8.342916332657051,"znear":7.680451627563175},"type":"orthographic"}],"materials":[{"pbrMetallicRoughness":{"baseColorFactor":[1.0,1.0,1.0,1.0],"metallicFactor":0.0,"roughnessFactor":1.0}}],"meshes":[{"name":"mesh0","primitives":[{"attributes":{"POSITION":0},"indices":1,"material":0,"mode":4}]}],"nodes":[{"mesh":0,"name":"mesh0"},{"camera":0,"matrix":[1.0,-0.0,0.0,-0.0,-0.0,1.0,-0.0,0.0,0.0,-0.0,1.0,-0.0,2.0,0.5,7.96522841660369,1.0],"name":"Camera Node"},{"children":[0,1],"name":"Renderer Node"}],"scene":0,"scenes":[{"name":"Layer 0","nodes":[2]}]}