# vtk DataFile Version 5.1
written by meshio v5.3.5
ASCII
DATASET UNSTRUCTURED_GRID
POINTS 534 double
-1.8816842085748022 1.5223299706233326 0.3497612581089945 -1.8512248208854074 1.302137432033462 0.3640239861047355 -1.8458022576799236 1.4695631453069753 0.8371723050071102 -1.8514188055999121 1.477892980231959 0.5986242760280205 -1.8297744996216017 1.3104166584197925 0.6704299467812977 -1.8194454655044854 1.322338675896767 0.15146621214802386 -1.8238137204563853 1.6160664456955898 0.16073619704866707 -1.812773448161054 1.9735854198103233 0.4745463811123932 -1.8163812113581634 1.7354427606608192 0.3704446613666272 -1.8115604265370853 1.948344692259138 0.2628172716554632 -1.804635184946337 1.309328243237856 0.8563746978471555 -1.7771269667862315 1.271656565917071 0.4736845081988653 -1.795473956937852 1.6686945618645328 0.7958743119294319 -1.788806042041765 1.7739657960862552 0.596680967207976 -1.7863327825093682 0.9971781658342199 0.32165351158191935 -1.78488964932924 0.7865690510750108 0.3522001424103528 -1.7583541592944338 0.8615499000947023 0.4852379409670642 -1.7403755224790771 1.862793518456127 0.1852189667180457 -1.7702081075509981 0.7731453591039522 0.11844041910095665 -1.723224693421255 1.406625637544843 0.971672111644432 -1.7544827775109124 2.045741075746743 0.2886134205180421 -1.72653964527672 1.8952675708464475 0.735576342018722 -1.7324634791266185 1.1832007397779054 0.2950215650168427 -1.718357256333141 0.5936057961072316 0.28034121073437934 -1.7362224935273722 1.5251610819318846 -0.02891995565544991 -1.7065408078338014 1.2149688174811226 0.7521228421393558 -1.7219577193007138 0.9628582597505461 0.018587504314138338 -1.689703603452708 0.7962756230117246 -0.08004801466640969 -1.7158799795015407 1.5648109899971925 0.9815308374541176 -1.6763436447979356 0.6324454919120566 0.5384264214119647 -1.6933645654494256 1.7818950959636783 0.8870021551782971 -1.6554340583431055 1.2091353755504162 0.5740667666414997 -1.678123213682133 1.267164371797159 0.9261805156549769 -1.6897820579403038 1.999140919988796 0.1020876286636345 -1.672374521051938 0.960660244779001 0.6029548140116844 -1.6597135639381493 1.3834540324966371 -0.06358063730211666 -1.6512764238636584 0.5904175075474288 -0.005679459980852815 -1.6743925988558828 1.174648418453359 0.041339655427300774 -1.6915697606480016 1.0854292284803302 0.5228133190545097 -1.6259185820636755 2.084818810436073 0.4826830739730379 -1.6072593159140511 0.42825759325645113 0.21008828684370132 -1.636502923800345 2.0261347553898092 0.646644720639201 -1.5446291920370827 1.6224624755893768 -0.12962654571302362 -1.6153538765709943 1.8792136957948178 -0.02315835695949582 -1.567937523684908 1.5790967190693408 1.064443869023624 -1.582420709243722 2.354642269041248 -0.7410231797353377 -1.5555553592591904 0.7698102705421351 0.7492775000405524 -1.5426800483591907 0.40974039263442735 0.4526562778448694 -1.5570292548053908 0.986816354307948 -0.20145317640434093 -1.5586178154177652 2.1671528238957496 -0.4080642984134945 -1.517575579322034 1.7714050119152698 0.9798877665721978 -0.586105633124948 0.3020117714921176 -0.013776223361980323 -1.5450828839986972 2.4569657889537515 -0.7897067008126532 -1.5407471583948384 2.026454261900474 -0.12555561044614766 -1.5349003365164064 0.45660931469098515 -0.10549990459899417 -1.5551863483421806 1.9539916220287266 0.8138641934900351 -1.5170352838363457 2.5797101440942534 -1.0439641912689104 -1.5431917019160541 2.081206635074981 0.058344839053405734 -1.525849748280615 2.2223751216391463 -0.2799262994600425 -1.5144843045077456 1.9872648608783003 -0.32789949146077735 -1.532669846626142 0.7272568297879873 -0.26043396277991837 -1.5029839810707308 1.2999745345726021 1.021361657742244 -1.4997076783534156 1.1507550621098215 0.7430156293639499 -1.4882567011438816 1.8459995704642114 -0.13604089543792344 -1.4668599594018323 2.151877646899824 -0.6210282855431046 -1.4658574746126352 2.415148822424191 -0.602129497587779 -1.4797570597972254 1.2058013134380288 0.8754933321198194 -1.48793 1.99784 -0.621918 -1.4742858090080713 2.122464122176164 0.4090173521672191 -1.4273712486507415 0.46789554061278493 0.7093974285946675 -1.44182349157851 2.528898203287114 -0.8996615039567267 -1.4499986912956777 -0.2841134675556533 0.14385726432782958 -1.386893052695226 1.2804223583413423 -0.1871231519211704 -1.3501100907210115 2.110980542250851 0.16137306691073727 -1.4211651026415093 1.2955013503114743 1.0248576397339306 -1.405549641372311 2.2853434105667283 -0.3090994881042715 -1.4233713816163962 2.3254733093950017 -0.9446785748925851 -1.437502 2.0177 -0.856872 -1.4100229042336956 1.8975889542359183 -0.3716216378158919 -1.3999333497819684 2.1655265131994925 -0.08854974379650143 -1.3620221733270692 1.855024964877429 0.8745313734360846 -1.4039784411861518 1.4147739494785596 1.0649771752510646 -1.384057696401806 -0.1473185919577847 0.040519286732178285 -1.4063039118497025 2.6071881551821456 -1.0481407165195606 -1.390300053477309 0.5332508409580391 -0.2995774448879511 -1.2911815235915736 0.2615208270483329 0.5098626383158719 -1.362679754196395 1.966899606845956 -0.66078880359366 -1.3906821244181642 2.6082420993483577 -1.1561221558992798 -1.3845099321929828 -0.15925355187969056 0.16192456352744938 -1.3881277096085984 2.0846682505990697 -0.9981905509564905 -1.395734 -0.31168 -0.0904852 -1.3701295928877806 0.2182865638846678 0.2512183698268237 -1.3613159066635663 2.03844418555182 0.721014182751227 -1.3227567701006742 2.0558445332788358 -0.8576689122830203 -1.3877257136488355 1.6055852928148746 0.9911454160427514 -1.339469219764581 2.2165848701809336 -1.135903716332286 -1.3121240570911705 1.2924286831668792 0.9051113141826835 -1.319251894887701 1.3623808679567557 1.0016365005518142 -1.2911777451721758 2.279275878795728 -0.4704191870013174 -1.3124004576274515 2.453837736780326 -0.928221287116728 -1.263269504708476 1.2126874816871402 0.7484664114261718 -1.339876 -0.283718 0.626126 -1.286650465689494 2.573217590108796 -1.1272935975263767 -1.3553447095456548 0.9002602991465991 -0.3326979877949898 -1.3017400017956675 -0.15534874334291207 0.6839005296931211 -1.3153417720769813 0.81926254345213 0.881864079249388 -1.2857676536885645 -0.15226574887347902 -0.09565532778679015 -1.3213936309842362 0.6564205354622507 0.8678350140846978 -1.3074900365449347 -0.2901571292853849 0.7693344235172541 -1.2781939353995797 2.578720874091618 -1.2077149559834577 -1.3298278004950443 1.8175523165772007 -0.16446412260041313 -1.2559649844999032 2.1209585944025284 0.4112293193946792 -1.3275257304125696 0.25123145981000095 -0.01679286025930308 -1.2741760792032182 1.9501153143521384 -0.3761507653762654 -1.2871761992183774 2.164562731574887 -1.0769823373624547 -1.2802361650136596 1.4929154174772314 0.9369934913862025 -1.2814824608134774 2.060494593034721 -0.0010715197517391045 -1.2384831464510848 -0.15067435485132916 0.5192524398076941 -1.2934275591971807 2.1263268922187133 -0.19745152076145028 -1.2615320277011315 1.7195738587622253 0.7518746947104268 -1.2418735172602886 -0.3092476554069748 0.4075410541934134 -1.247186071866783 2.275661796961815 -0.7966013355003969 -1.245709132424167 1.871679289326535 -0.127622384266451 -1.2527814449105943 -0.17319735166414507 0.8397691027861278 -1.2369941510541322 2.4258972950015334 -1.0934251490729434 -1.23369700703032 2.1164695156700257 -0.40806262810365546 -1.2372017824467039 2.3369219406006945 -1.210179449938333 -1.2226890098653354 -0.07353513548346244 0.6638505543874691 -1.2334397521145497 -0.3303358307530582 0.03378437603512623 -1.253520849535936 0.3835214509203518 -0.2513946653257536 -1.226864702498854 2.444705511226216 -1.2344595486000085 -1.1704224278182527 2.1312485734690325 0.03904261019580646 -1.270185306331484 0.7113482875829297 -0.3827699595511519 -1.183574249942075 1.9734904479848223 0.706119635771266 -1.1523019167784303 1.4650359338461263 -0.16007654862354206 -1.1627532967114038 0.2478192311507261 -0.10475875758565398 -1.1626913119449493 -0.012596159052169237 0.07075502855461185 -1.1575469303628578 2.1347660179225523 0.17754941574706742 -1.122812051428685 0.5739883007277573 -0.39929986411198587 -1.156425605822573 -0.058233555263953 0.8058839638607609 -1.138080062941336 1.508068781442699 0.795258413624803 -1.1718672353595248 0.176820814656502 0.0615643169653405 -1.1379741063557351 1.7404370794919377 -0.09535345162497356 -1.1476770222520074 -0.27111588788731744 0.9285494302583558 -1.1467464270187577 1.1980044337826972 -0.3461838266514645 -1.143620037172442 1.9183658563372048 -0.03509733789204695 -1.0723175088878212 2.051300586548609 -0.0589719026793369 -1.1337137391417837 -0.08746957277518436 -0.11276235098764803 -1.1336769766173111 0.902515572590544 0.8885665444340647 -1.1322768552401121 2.0632657825555367 0.577568411538761 -1.0886085007257713 -0.1269603977173822 0.904201554444425 -1.082230539419861 -0.3280195794574424 0.2547213657349132 -1.1240274843947475 1.804073558838492 0.6199255161093422 -1.1013550670151795 -0.13619269064589096 0.3677096517898192 -1.0907234382586874 2.0635837402278567 0.4331916059572327 -1.0511256809118499 2.124409346762998 0.21728367759235342 -1.1154366335657364 0.8655807633645736 -0.4356626064817151 -1.0741900549891836 -0.022208280905140862 0.5571636632129778 -1.0748164476491866 1.9123563327841833 0.48902617533731346 -1.1132990703709331 0.455217245096409 0.8126757325574749 -1.1461747772460993 -0.3275623618056369 -0.20785337665157505 -1.0508789968928518 0.14562398886129452 0.46040392653960227 -1.074342838984186 0.30192524006032545 0.6927989802661484 -1.0907186598025902 -0.31011171504075813 0.7571028033980493 -1.090132609414148 -0.009811558741367086 0.22525498819748582 -0.9947879900555942 1.730000622601444 0.0591777945610465 -1.0146293814865348 0.16064840509462508 0.6409124381172401 -1.0720840258582274 0.3374843391001732 -0.23491292397036953 -1.0324375542247737 1.3398049265581333 0.6643824742126406 -1.0166233490091463 -0.05228052146844492 0.3639099200226276 -1.043148148161154 0.021505988677671468 -0.1401521511680059 -1.0167691577143256 2.0008577560597107 0.2627816059001979 -0.9770087726501504 1.8816146461164214 0.05332751447794293 -1.0063924836187652 0.018181296357095797 0.7049651509055982 -1.006269378938225 0.08660594865289278 0.33675284651831994 -0.8858546756649416 1.1627990977668332 0.7882230861632689 -1.0293033325715288 0.6893240978909176 0.9046905664749415 -0.9919421102008934 1.917379142703556 -0.021405541853733966 -0.9978949248869292 1.5765557046238003 0.6238333184227 -1.0188433744666574 2.191095914066652 -0.09319508460044698 -0.9877247660050271 1.8452434219045653 0.1664549325678041 -0.9862242722203114 1.5796882123346092 -0.045065191693330856 -0.9946991665161891 1.7256624607911957 0.43733898074532596 -0.9720175599820225 -0.15399231434253688 -0.22082663500417526 -0.8943983191205285 1.1053857191545313 -0.4095708266773136 -0.9988687448467916 -0.31876119546898185 0.5507429967100611 -0.9638481813040362 2.3421350377743937 -0.07359641535380483 -0.9198436722343826 -0.1749576229833839 0.8830166772622103 -0.9828375260625268 0.16062516486236356 -0.21460115033385077 -0.954518911685984 -0.2865656677732426 0.8971011034036328 -0.9416109598383163 -0.31935277236190474 -0.3216849916634097 -0.8858513840956379 2.048855359907159 0.15335931487318943 -0.934899350593438 -0.03934153655234815 0.7897736019664656 -0.893639281516398 0.5361588246289332 0.8462620261824405 -0.8772047300156877 0.8379564768868738 -0.4481634655701508 -1.0070901941806791 -0.32983134342040915 -0.06256136784544848 -0.8999284984740459 0.20972785291868312 0.7806944728766613 -0.9355793385858617 -0.2881206475954277 0.161553666685939 -0.9123955221213036 2.099388592614604 -0.1502140287113095 -0.8975777841955335 1.6199842590945905 0.25959381423523853 -0.8943254290164532 0.5325515157078947 -0.3708643801658159 0.3007599492120241 0.6540484197484906 0.41072806370167847 -0.8905814688352296 1.531282053232483 -0.12478550440871083 -0.8962386285231698 1.374541817980552 -0.28571333637652785 -0.8663734990373952 1.9450721059405824 0.04372207309871909 -0.8639507551537811 -0.3149444514106817 -0.5359836185602442 -0.27826799501280236 0.020961817591078628 0.015626200305485886 -0.868877471037528 2.2412969700990244 0.11141526408696928 -0.825938182120846 -0.3215282585000299 -0.23498663490169847 -0.8358490252685695 2.4028417356703593 0.017711063683691426 -0.8429950200898942 1.4906280895419488 0.4512869905315127 -0.8461393532896413 -0.034961166066455024 -0.22507876291785178 -0.7715637506066804 0.11496865469532692 0.7931100515083362 -0.8128626449805453 -0.29030792736534816 0.3084361556025349 -0.8027042179570859 -0.1495258267236609 0.8374300106143018 -0.769132277742207 -0.32641837623719155 0.057404450632112705 -0.8711914637032456 0.8778717172536562 0.8547238944389949 -0.7851169569834275 2.0358860941990296 -0.12751513883361518 -0.7636897921194993 1.5561569986280062 0.052633962540729246 -0.7593706159358304 2.252602241991251 0.00044913887565859205 -0.7177224943958654 0.36695904674776497 0.8297840534186345 -0.7388611805835636 -0.30271631009179234 0.8500338707183765 -0.7593695078953161 -0.23253078159923107 -0.14420326034279782 -0.7256055739669068 -0.1340748099360447 -0.5537837352174424 -0.765567024185197 2.366691133151316 -0.2531962397959534 -0.7136642529438161 0.4440772876785723 -0.3610928117830542 -0.7182837054642799 -0.2976675666275338 -0.6194584760466952 -0.7844516126659228 -0.3113242614291116 0.6929795216241115 -0.7238250703998935 1.3675832417781173 0.6202553563905898 -0.7088582415231246 2.146982849680702 0.0736371611746269 -0.6754728146579155 1.0551632569874825 0.826043083961534 -0.6372688778424216 0.7374111061470223 -0.5309429486904138 -0.6674058896982838 0.05271527209960994 -0.20726030127664083 -0.7102281535278354 -0.31928217088590766 0.4938483108783857 -0.6641559654368059 -0.32782928302169145 -0.46664411143857887 -0.6537651275296991 1.309289186627639 -0.3048658312899774 -0.6475109269651118 -0.23906481432932827 -0.330355888729005 -0.6679830643224052 -0.27660437445196656 0.9825648577123722 -0.6335794093878871 0.5254253765956409 -0.623164598185897 -0.6389387529563886 -0.3239817553322373 0.29054738948921777 -0.5848257965552497 -0.1093832951847784 -0.5678523077479104 -0.7209453350600312 2.5251076604006513 -0.1734337020187461 -0.6324029027612516 0.7148255543336036 0.850216542103049 -0.6029002687355792 0.874351567830634 -0.4894876283122265 -0.548285172645127 -0.23521275297632702 0.06273836787076797 -0.6057369566781313 2.536836012710386 -0.0903855479050453 -0.5737980092695392 0.0742639732203282 -0.45932423220579205 -0.621661812723062 -0.2379252494003622 0.6450927241078616 -0.5639296750129564 -0.1762907264385548 1.0649452372841923 -0.5955696226778099 -0.055186749472210916 0.939229397967646 -0.5522010937845383 0.3415839664661713 0.783672508531925 -0.574098275636378 2.0935447925951993 -0.10843195448536357 -0.556910085229179 0.6733709966231624 -0.7193784531357057 -0.580117377166737 0.06899568513334187 0.7305870833490191 -0.5275989946488683 -0.3051982411107677 0.880274022566725 -0.5198974462770389 0.5016588587926385 0.9285681559888277 -0.5063124803532337 -0.240610032721255 0.4611486004928066 -0.5669815447418463 2.608630988256775 -0.27035733536023276 -0.5113921720290702 0.8093851213364108 -0.681802459272948 -0.49538529360940825 1.4599875259044761 -0.0985300336195231 -0.5088327480677318 0.2119812298238961 -0.6225344193550453 -0.572896250330532 1.4770952145992042 0.40790496565134415 -0.5219794558933071 0.6642558978131382 1.0251123870775367 -0.5125126642546906 1.5190569142190362 0.15117034585933917 -0.5383676298271624 2.1847214651597753 -0.2534776160319305 -0.5038136474842991 0.8673610137346035 0.9270256963368795 -0.30429552902795476 1.5696135105770956 0.3732136817598561 -0.4281131310089091 1.184452524466016 0.8145537314491423 -0.49232583081095255 -0.2414704730980025 0.7812013389817434 -0.4820550781985718 -0.27186838983501227 1.075450816142768 -0.40246918719645974 -0.06807533364758907 1.031200568371587 -0.4827244235978598 2.1938485493718667 -0.034514093487229745 -0.43526767817765033 0.685373406970039 -0.7680447488796284 -0.44847023648941603 0.45322009904200444 -0.7665101858846667 -0.48248653177614315 -0.3140377152710835 -0.41304311022829526 -0.4513248599648937 -0.08935751324564997 -0.5577405603208407 -0.4508769238489874 2.699079254350048 -0.26482737650860777 -0.4563805115111015 2.559724194861904 -0.41570349604412105 -0.49731746329137216 1.1343828570196652 -0.44156062446370414 -0.3823197127617626 1.4300168070280708 0.6298625230057222 -0.4334074739821449 0.5457340848970271 1.0866012187221583 -0.482773126433262 2.392989015448975 -0.38357389626430904 -0.3570400195361438 -0.3250574835763796 -0.4996988274622871 -0.3838099682130297 2.3948804724056143 -0.284036741625514 -0.3924760503219624 0.892265226334821 -0.6473080508855217 -0.3826036861323048 0.6648198681685965 1.147470249076976 -0.4000896074336431 0.8180085139511668 1.0841650431046799 -0.35671785844045706 0.18884585144852595 1.0165956314190465 -0.37759051829739815 2.7385104587063296 -0.3996039045946483 -0.3371206947207582 0.9631421961757463 -0.5004853507843752 -0.3299219365793466 -0.0010139028928501555 0.9478249237790732 -0.25679488416112745 0.24477543737464835 -0.7282731529431578 -0.2672213427541782 0.7853076091527641 -0.7503907570155849 -0.28621441352102783 -0.3036091667336593 0.8806532589291469 -0.2793494086182271 2.2432322707717454 -0.22705749471534198 -0.26915265566777197 2.691207721898234 -0.5303490980760828 -0.2670756693546493 2.58640982164545 -0.5681323526812017 -0.267041718777503 1.024324501841304 0.8736439834280734 -0.2809309559784145 2.3279024544348226 -0.40725863619373437 -0.24104609805991395 -0.21230503859273783 0.7647420384522426 -0.23786997137763488 0.5705233708060243 -0.7621916019800286 -0.23773573999681397 2.515073378672062 -0.4436433169586116 0.5322882343044011 0.7660891170460621 -0.05085672677686876 -0.177177519910452 0.8307872269840106 1.1298741318624312 -0.20448007841654464 0.2637857965881855 1.11044935920792 -0.25697909278528147 0.9517925479376758 1.0192239645365024 -0.1808352496528488 -0.157492996221541 -0.5199866154002786 -0.19759236865314334 2.3447365025183893 -0.376100086864109 -0.1850325177172214 2.533525003928486 -0.5757036152938063 -0.15297949099784666 -0.0003545677599164662 -0.6219685289871316 -0.18460242869680912 2.426831158621124 -0.5294393514090036 -0.1377374787025638 -0.1011978755292359 0.9547539346268425 -0.11209295804119984 1.5249533179164674 -0.1472189134312014 -0.09784869606909379 1.3665420256937977 0.7755963864447778 -0.12143274583749172 1.178318258020689 0.8685542431813076 -0.09797278725484684 1.6119365581990281 0.1427592923526486 -0.08737014827654889 1.5937385835016213 0.48426653748877935 -0.03774212031711439 0.5512240774664755 1.1691976146315817 -0.052587551777948896 -0.22537223809396348 0.5236112358236211 -0.11703961979512582 -0.23152127426549796 0.22199657160562616 -0.04969766468338006 1.5016202776903513 0.6503708560822807 -0.04302792104067621 0.08125819085570522 1.091630026083245 -0.06424406412444059 0.9495047126473213 -0.585976884555265 -0.025742019649624207 -0.29444231853295 0.785898445535347 -0.22477198217970334 -0.3120390573514802 -0.3727340837937977 -0.010965352479285252 -0.23169504474090283 -0.27644905008850185 -0.03832396646554498 -0.27945646454825374 0.9469268085015312 0.0031136614460161955 0.6386569028641739 -0.7210108159617254 -0.0028965845256579276 -0.2090248053503522 0.7147086083012191 0.037920570702654026 1.0322763643889725 0.8886878974216466 0.0539624344012984 0.2975642780990115 1.131148596554032 0.07980132260117957 -0.31029202624479635 0.38360438242501643 0.041148556765724625 1.0078003198388963 -0.4581264074525324 0.06385342497838889 -0.3149878135698969 0.10105157417913506 0.08586240555165306 0.9207534036580071 1.0549043004784764 0.10977874039138552 0.4224809001450299 -0.677833453054888 0.150402226380197 0.04290475686920878 1.0430075141245947 0.004893772453406173 1.287831724874827 -0.3800514816583176 0.1137092543112497 1.2659483024464702 0.8144842339760013 0.05100245120158832 -0.31799817037631206 -0.3761345136979316 0.07236536631342469 -0.2765549554179888 -0.4797105645546055 0.1729232791279683 0.7249681373033339 1.115373488024766 0.1420938375760296 -0.2162319627715059 0.6065551799284429 0.13563285204433076 1.6274170289198622 0.33868360687815097 0.18362968878854743 -0.28844534445984454 -0.22865367069905246 0.17475731876352107 0.8084053080294415 -0.6300323416414205 0.14950939703702618 -0.25804898980787594 0.6958519983833497 0.1765665699824648 -0.10666299229106896 0.9127906170295301 0.17787476672504973 1.4402142689593858 -0.24483745427657064 0.23336912779407548 -0.30652047480789696 0.5030906772322017 0.24385368455052617 1.5929166301306708 0.06512433049400364 0.23083031677835322 0.9259827288419135 -0.504621182893847 0.20644788834875805 1.4111534090525177 0.7162731911583122 0.23413899260095217 0.43135459737220905 1.0853245474537916 0.2532625726799241 1.5386195552458135 0.5679246844613544 0.25874384971952297 -0.004642507508358413 -0.5468065634742367 0.21405409784548562 -0.3078185539723865 0.791464361716395 0.2830864330440017 -0.29139903467905254 -0.3875823620728192 0.17016337886944943 0.36259555302779795 0.022728369097029213 0.2718966917495588 1.1600488784397558 -0.3732372737624869 0.36546878192839327 -0.24355698129123632 0.848636433875908 0.37086652531682995 -0.2776416391046626 -0.2401916733205978 0.41392263500178994 1.3615951616279787 -0.20545703461615 0.4149982867479145 -0.10658616052124316 0.8397313698472847 0.4151699780590593 0.18504556951141135 0.9619949665698214 0.31847870480639273 -0.2916488249572678 0.23999381425163685 0.395982397771598 0.6734233811590264 -0.5455155320939964 0.4726267781370535 -0.2926684148707981 0.012916047650635601 0.4330706260113541 1.4231832730751977 0.6198217614025422 0.3647724600107998 1.2098247928513584 0.780380748375713 0.40907418839398185 -0.287169321472723 0.6263297882298305 0.45288606333584147 0.12160241658894919 -0.517360690881453 0.40024743366061843 0.9138018575834489 0.9445054236343078 0.4801994145124898 0.9621785257146103 -0.4148211174229432 0.4989919550248804 0.6233980671343201 0.9670779077410335 0.4690034824195662 1.4999886983349935 0.33060427760707267 0.5112331177544501 0.009376750853404798 0.7811802178746234 0.510193145677826 1.4238918086573873 -0.009349780882981405 0.49773718818724166 -0.033284803735448946 -0.3881386408576708 0.5513533683174705 1.1179031790247576 0.7583623139968764 0.5623948248054107 1.3467061410623198 0.5793345256414227 0.6708822413105342 0.13549026440031875 -0.2572568136022549 0.6398215176054074 -0.29087797183223 0.26866197764674227 0.6241177532971458 1.3744806326650383 0.2024877428679811 0.6036241066342832 -0.040356522277995945 -0.15240191716573076 0.5849417844049157 0.8627540472368423 0.8663924191278389 0.5866258715123861 -0.14559523714580352 0.620923389336005 0.6439187581037198 1.1021235804346567 -0.24536178555499247 0.6820049681007577 1.2473008472343239 -0.042379227120073845 0.6753519526814918 0.19813135275340027 0.7733078792115268 0.6108874059600917 0.5026663104885508 -0.41785666329720683 0.7366716599558871 0.9688616976428566 0.6644081030337753 0.7339702729629209 1.196662630998417 0.48388390068872567 0.7446418818812601 0.7147168697185304 0.7329896694312199 0.7421330045347189 0.07465656821825405 0.6293926527326463 0.7587881842824477 0.36629293407039615 -0.25527209492019437 0.7270504104080877 -0.20275656349413945 0.49190548721264143 0.7183780002656136 0.7407692808266434 -0.33557534642947806 0.7536640438085466 -0.2141077663971186 0.021923501418644367 0.8019311228223103 -0.030449002455410427 0.643167245686079 0.7779878689192236 0.4581552639058115 0.6851730273263803 0.8322225160969826 1.0747379669065147 0.2224265692572412 0.8079343357755008 1.0480365953807174 -0.031215454883584938 0.8262150366257945 0.8371100061065629 -0.16644396439850015 0.8464931912716676 0.004744400054629998 -0.1295274143332289 0.8513753936903276 0.2756306044945726 0.5621641604639013 0.8269989195354732 0.23702997325126016 -0.06626747601358719 0.8549578850963552 0.5629661420669182 -0.09839806085295076 0.8953422117764399 0.7602445544102402 0.4386106934060622 0.9087612238409902 0.7942301475941456 0.07659806508985736 0.9336450563322657 -0.07452283782876136 -0.026295578839954432 0.9171170602433462 0.468405018311886 0.4023123149860914 0.9231898887954432 0.11788598316297116 0.6434960397816218 0.9364978587307556 0.46968501260326145 0.14069631824627124 0.9308063063645577 -0.12070240441935468 0.45711867344896695 0.9711639868880764 0.3158301025381663 -0.013580080384775414 0.9177415166003199 -0.17193497700191576 0.24218913585097773 -0.26787733779656847 -0.2261592146179903 -0.10072753584891755 1.0088287800178306 0.021731377117161478 0.5529272196542164 1.0432682267889413 -0.03946321081971063 0.05259255765656889 1.0475728426754176 0.18292206826238727 -0.06944762595799832 1.0583977648853709 0.2302149920582462 0.5782527603861455 1.0337918150932968 0.39418546467315796 0.4912316713167725 1.056855789504744 0.4728657970696398 0.30591120381250303 1.1262143485147906 0.0003886528890155328 0.336221179209448 1.1510978226056108 0.43567383533091647 0.22731480427338005 1.133420140679276 0.34727810508585005 0.051420329895536174 1.1783069996812092 0.16383022440039843 0.4194124518582637 1.1734562505132486 0.3795002478486026 0.3886850181005579 1.184824605988005 0.15991711908589734 0.14158746761479502 1.2178654420271253 0.29009697083036656 0.22974260685441333 -1.5906040580314433 1.4803490388878635 0.2807360396762739 -0.30908723467893917 0.1394786738250754 0.39172328925923044 -0.9888673765115561 0.8349290576825178 0.20347159890331185 0.10389195349244089 0.8928929163875828 -0.007020502139113384 -1.1099676122645266 1.325220066506906 0.18877013560732855 0.40455603667103185 0.47993129241541876 -0.1483494091715122 0.12637269571370494 -0.0064905404311008524 0.2504194270899669 -0.017200452675745666 0.278869032635434 0.7980308445821144 -0.20835384355191136 0.7026401177045174 0.9147279895778265 -0.9690063197423286 0.4328493039566334 0.315307577314231 0.5693833039650688 0.8799482615896738 0.3627508647480975 -1.0378735866808404 1.0213161145603145 0.4875015786862939 0.4291014197968905 1.1008630645571538 0.04171325353680979 -0.7730852527361658 1.1570024885062102 -0.07396292919779408 0.23526878110402538 0.6349622026810189 0.0973232030057379 0.3682288577530802 0.23735095642806858 0.5776082582052301 0.5119057049377077 0.5453112838391018 0.6063405593130421 -0.5530410282280956 0.5628315724790677 0.30432266664572344 -0.30931522691416186 0.18782877378549404 -0.360360899502347 -1.3711575739448365 1.8312271930412147 0.11666276362359991 0.3277823823700593 0.8663722332861149 0.17559788424478512 0.49740925889040344 0.19450749109085902 0.022160847726602796 -1.1452698651451656 0.6879472961465054 0.604592826354472 -0.07377654839738056 0.2661123496046174 -0.06592018733599384 -0.6968670649316571 0.8771059614015737 0.5464030397526006 -1.2460715380499436 1.6431474867430427 0.055038429110512294 -0.3480462609241616 0.9881421835032617 0.39974573046605005 -1.5366701448656455 1.461232741771544 0.780076549546946 -0.454651818720277 0.9809726592176797 0.00036704225069349053 0.43361912524581625 1.1476425915799202 0.46688759964098153 -0.038695195600470106 0.4895692313454819 0.28228016701275693 -0.3881529493418309 0.6015566889866126 0.6426170690143621 -0.6633464971111843 0.135219797355698 0.2918750027056213 0.08891333738590335 0.9855704743653663 0.38964177397214506 -0.1469584433375254 1.337311642516038 0.2881568034125833 -1.557826051311565 1.7502346114394396 0.6154287911247301 -0.06435836429826979 1.1978094776921366 -0.05424926868941143 -1.020765915944922 1.2831264144977443 -0.08792295302555525 0.5921560728888969 0.43026592675464037 0.26586402780585044 0.22925625342221467 1.3196681197799054 0.2536669345312543 0.4748877497696501 -0.045741229748020404 0.3373697768119157 -0.2994120372215029 -0.04175559328895196 0.6012242209852471 -1.332982890937687 1.4070689395320597 0.5544705384565604 -0.869282324428266 0.03129105954725164 0.02068553437497593 -0.9222035611424187 0.3341042728175625 0.053459465056989855 -0.7906725194938654 0.6706598798011394 -0.11652132364642158 0.20666861765407069 0.5067733217278871 0.748229465331918 0.23130827724693986 0.015313310600548895 -0.2439319151299591 -1.2911612973566287 0.5258715846511963 0.33876553141425675 -0.036055902003083826 0.6505467486573012 0.5613098066135603 -0.11228420176019961 0.9082153076548444 0.6646092607726691 -0.11049415117817735 -0.024438994461216737 -0.24575622847736528 -1.2268381860412132 0.5630690773689955 -0.03579587472348876 -0.23061470107533338 1.2546565307501996 0.5497480556499891 0.3117494222257936 -0.09743932465570293 0.01477805449828649 -1.2987337426724712 1.628810483975189 0.3718941074901058 -0.7761207125725009 0.29158991191409794 0.5445794422501242 -1.474551464819147 0.8035852477427974 0.20384495308099584 -0.798104582700685 0.5565841126451309 0.6101612892205798 -1.257694658969505 2.1116277913069554 -0.7253238234679652 -1.0378372892092915 0.7302099575735944 -0.25317199065667684 -1.403689903906093 1.057016311418623 -0.0029979951734526175 -0.0213275103664047 0.14253585998520785 -0.4135956754156112 -0.2924579828194467 0.21715867776399275 0.7225380725948991 -1.3511433791337395 0.8350910961048894 -0.10104599382214043 -0.7769620651160984 -0.08517250886923458 0.23847092562803038 -0.8174796057779117 -0.024768398903370913 0.5504375673815248 -1.2892146150263708 1.047554366773223 0.2090186964521273 -0.4052132914549842 0.635710909978812 -0.2146115515486875 0.062194856242352235 -0.21458311423891863 -0.0547202393386558 -1.4276358152101678 1.2876290268804682 0.11577894040580404 -0.33012619825255546 -0.23356232461711654 0.16528757893777182 -0.41059272736067076 0.4370294399791936 -0.46906620200291765 0.04260629007343418 0.10945537247820522 0.4719264180406513 0.5712717921619509 0.3887847039193755 0.8715366703149967 -0.7007308972773558 2.2412716850583085 -0.2642859689105537 0.19915790731847574 0.3347250300299281 -0.36137278859543676 -0.651075372822699 1.168081696957057 0.5493792385216592 -1.126999017504757 0.9700221750284636 -0.13411665363800188 -1.4815369435315358 0.6641814571384449 0.4427408407451198 -0.044334109200679726 0.0012546820457891873 0.6507242360054557 -0.2694359912686724 0.43240073432409265 0.920796255873527 0.0325243987582165 1.3260117727256435 0.5369746473947804 0.9012067195314505 0.16166892176871148 0.2513678005271115 -1.3736643307520835 1.8840385238067863 0.40128816494385106 -0.348188739772366 -0.03634851886959972 -0.29759223736256607 -0.5442075970096494 -0.3059141355739512 -0.5961525614207155 0.2714011741029287 -0.002980198580060931 0.6498848702395166 0.32213624538627555 0.8487259670974068 0.6937440314522828 -0.5522986475513812 2.339326257471055 -0.16681805724744433 -0.4193294422678321 0.6516273155316341 -0.5762259607479356 -1.406490865846596 1.0697600493959298 0.48277889784831757 -0.14850760944109426 0.040535954619689715 0.8335258304899633 0.207287954055814 1.193161024485464 0.5927696820999562 -0.2356320326296727 -0.2244078149844527 -0.2908347822759428 -1.5574426732683013 1.0243690227307682 0.14792544314215822 0.01857141185506357 0.679242018652356 -0.31851350767231873 -0.016151123516755867 0.8207361807484257 -0.6904757306022675 -1.5868648914835848 0.8550030600612576 0.45272224136014694 -0.442570523288844 -0.22692276645379222 -0.30071243777214823 -0.1484779889343907 -0.3099495653781463 -0.48293722027945113 -1.5481684576816286 2.3071535371106036 -0.5087919475962907 -0.7740516603657732 1.2279378729824033 0.29055809104367974
CELLS 1643 6568
OFFSETS vtktypeint64
0
4
8
12
16
20
24
28
32
36
40
44
48
52
56
60
64
68
72
76
80
84
88
92
96
100
104
108
112
116
120
124
128
132
136
140
144
148
152
156
160
164
168
172
176
180
184
188
192
196
200
204
208
212
216
220
224
228
232
236
240
244
248
252
256
260
264
268
272
276
280
284
288
292
296
300
304
308
312
316
320
324
328
332
336
340
344
348
352
356
360
364
368
372
376
380
384
388
392
396
400
404
408
412
416
420
424
428
432
436
440
444
448
452
456
460
464
468
472
476
480
484
488
492
496
500
504
508
512
516
520
524
528
532
536
540
544
548
552
556
560
564
568
572
576
580
584
588
592
596
600
604
608
612
616
620
624
628
632
636
640
644
648
652
656
660
664
668
672
676
680
684
688
692
696
700
704
708
712
716
720
724
728
732
736
740
744
748
752
756
760
764
768
772
776
780
784
788
792
796
800
804
808
812
816
820
824
828
832
836
840
844
848
852
856
860
864
868
872
876
880
884
888
892
896
900
904
908
912
916
920
924
928
932
936
940
944
948
952
956
960
964
968
972
976
980
984
988
992
996
1000
1004
1008
1012
1016
1020
1024
1028
1032
1036
1040
1044
1048
1052
1056
1060
1064
1068
1072
1076
1080
1084
1088
1092
1096
1100
1104
1108
1112
1116
1120
1124
1128
1132
1136
1140
1144
1148
1152
1156
1160
1164
1168
1172
1176
1180
1184
1188
1192
1196
1200
1204
1208
1212
1216
1220
1224
1228
1232
1236
1240
1244
1248
1252
1256
1260
1264
1268
1272
1276
1280
1284
1288
1292
1296
1300
1304
1308
1312
1316
1320
1324
1328
1332
1336
1340
1344
1348
1352
1356
1360
1364
1368
1372
1376
1380
1384
1388
1392
1396
1400
1404
1408
1412
1416
1420
1424
1428
1432
1436
1440
1444
1448
1452
1456
1460
1464
1468
1472
1476
1480
1484
1488
1492
1496
1500
1504
1508
1512
1516
1520
1524
1528
1532
1536
1540
1544
1548
1552
1556
1560
1564
1568
1572
1576
1580
1584
1588
1592
1596
1600
1604
1608
1612
1616
1620
1624
1628
1632
1636
1640
1644
1648
1652
1656
1660
1664
1668
1672
1676
1680
1684
1688
1692
1696
1700
1704
1708
1712
1716
1720
1724
1728
1732
1736
1740
1744
1748
1752
1756
1760
1764
1768
1772
1776
1780
1784
1788
1792
1796
1800
1804
1808
1812
1816
1820
1824
1828
1832
1836
1840
1844
1848
1852
1856
1860
1864
1868
1872
1876
1880
1884
1888
1892
1896
1900
1904
1908
1912
1916
1920
1924
1928
1932
1936
1940
1944
1948
1952
1956
1960
1964
1968
1972
1976
1980
1984
1988
1992
1996
2000
2004
2008
2012
2016
2020
2024
2028
2032
2036
2040
2044
2048
2052
2056
2060
2064
2068
2072
2076
2080
2084
2088
2092
2096
2100
2104
2108
2112
2116
2120
2124
2128
2132
2136
2140
2144
2148
2152
2156
2160
2164
2168
2172
2176
2180
2184
2188
2192
2196
2200
2204
2208
2212
2216
2220
2224
2228
2232
2236
2240
2244
2248
2252
2256
2260
2264
2268
2272
2276
2280
2284
2288
2292
2296
2300
2304
2308
2312
2316
2320
2324
2328
2332
2336
2340
2344
2348
2352
2356
2360
2364
2368
2372
2376
2380
2384
2388
2392
2396
2400
2404
2408
2412
2416
2420
2424
2428
2432
2436
2440
2444
2448
2452
2456
2460
2464
2468
2472
2476
2480
2484
2488
2492
2496
2500
2504
2508
2512
2516
2520
2524
2528
2532
2536
2540
2544
2548
2552
2556
2560
2564
2568
2572
2576
2580
2584
2588
2592
2596
2600
2604
2608
2612
2616
2620
2624
2628
2632
2636
2640
2644
2648
2652
2656
2660
2664
2668
2672
2676
2680
2684
2688
2692
2696
2700
2704
2708
2712
2716
2720
2724
2728
2732
2736
2740
2744
2748
2752
2756
2760
2764
2768
2772
2776
2780
2784
2788
2792
2796
2800
2804
2808
2812
2816
2820
2824
2828
2832
2836
2840
2844
2848
2852
2856
2860
2864
2868
2872
2876
2880
2884
2888
2892
2896
2900
2904
2908
2912
2916
2920
2924
2928
2932
2936
2940
2944
2948
2952
2956
2960
2964
2968
2972
2976
2980
2984
2988
2992
2996
3000
3004
3008
3012
3016
3020
3024
3028
3032
3036
3040
3044
3048
3052
3056
3060
3064
3068
3072
3076
3080
3084
3088
3092
3096
3100
3104
3108
3112
3116
3120
3124
3128
3132
3136
3140
3144
3148
3152
3156
3160
3164
3168
3172
3176
3180
3184
3188
3192
3196
3200
3204
3208
3212
3216
3220
3224
3228
3232
3236
3240
3244
3248
3252
3256
3260
3264
3268
3272
3276
3280
3284
3288
3292
3296
3300
3304
3308
3312
3316
3320
3324
3328
3332
3336
3340
3344
3348
3352
3356
3360
3364
3368
3372
3376
3380
3384
3388
3392
3396
3400
3404
3408
3412
3416
3420
3424
3428
3432
3436
3440
3444
3448
3452
3456
3460
3464
3468
3472
3476
3480
3484
3488
3492
3496
3500
3504
3508
3512
3516
3520
3524
3528
3532
3536
3540
3544
3548
3552
3556
3560
3564
3568
3572
3576
3580
3584
3588
3592
3596
3600
3604
3608
3612
3616
3620
3624
3628
3632
3636
3640
3644
3648
3652
3656
3660
3664
3668
3672
3676
3680
3684
3688
3692
3696
3700
3704
3708
3712
3716
3720
3724
3728
3732
3736
3740
3744
3748
3752
3756
3760
3764
3768
3772
3776
3780
3784
3788
3792
3796
3800
3804
3808
3812
3816
3820
3824
3828
3832
3836
3840
3844
3848
3852
3856
3860
3864
3868
3872
3876
3880
3884
3888
3892
3896
3900
3904
3908
3912
3916
3920
3924
3928
3932
3936
3940
3944
3948
3952
3956
3960
3964
3968
3972
3976
3980
3984
3988
3992
3996
4000
4004
4008
4012
4016
4020
4024
4028
4032
4036
4040
4044
4048
4052
4056
4060
4064
4068
4072
4076
4080
4084
4088
4092
4096
4100
4104
4108
4112
4116
4120
4124
4128
4132
4136
4140
4144
4148
4152
4156
4160
4164
4168
4172
4176
4180
4184
4188
4192
4196
4200
4204
4208
4212
4216
4220
4224
4228
4232
4236
4240
4244
4248
4252
4256
4260
4264
4268
4272
4276
4280
4284
4288
4292
4296
4300
4304
4308
4312
4316
4320
4324
4328
4332
4336
4340
4344
4348
4352
4356
4360
4364
4368
4372
4376
4380
4384
4388
4392
4396
4400
4404
4408
4412
4416
4420
4424
4428
4432
4436
4440
4444
4448
4452
4456
4460
4464
4468
4472
4476
4480
4484
4488
4492
4496
4500
4504
4508
4512
4516
4520
4524
4528
4532
4536
4540
4544
4548
4552
4556
4560
4564
4568
4572
4576
4580
4584
4588
4592
4596
4600
4604
4608
4612
4616
4620
4624
4628
4632
4636
4640
4644
4648
4652
4656
4660
4664
4668
4672
4676
4680
4684
4688
4692
4696
4700
4704
4708
4712
4716
4720
4724
4728
4732
4736
4740
4744
4748
4752
4756
4760
4764
4768
4772
4776
4780
4784
4788
4792
4796
4800
4804
4808
4812
4816
4820
4824
4828
4832
4836
4840
4844
4848
4852
4856
4860
4864
4868
4872
4876
4880
4884
4888
4892
4896
4900
4904
4908
4912
4916
4920
4924
4928
4932
4936
4940
4944
4948
4952
4956
4960
4964
4968
4972
4976
4980
4984
4988
4992
4996
5000
5004
5008
5012
5016
5020
5024
5028
5032
5036
5040
5044
5048
5052
5056
5060
5064
5068
5072
5076
5080
5084
5088
5092
5096
5100
5104
5108
5112
5116
5120
5124
5128
5132
5136
5140
5144
5148
5152
5156
5160
5164
5168
5172
5176
5180
5184
5188
5192
5196
5200
5204
5208
5212
5216
5220
5224
5228
5232
5236
5240
5244
5248
5252
5256
5260
5264
5268
5272
5276
5280
5284
5288
5292
5296
5300
5304
5308
5312
5316
5320
5324
5328
5332
5336
5340
5344
5348
5352
5356
5360
5364
5368
5372
5376
5380
5384
5388
5392
5396
5400
5404
5408
5412
5416
5420
5424
5428
5432
5436
5440
5444
5448
5452
5456
5460
5464
5468
5472
5476
5480
5484
5488
5492
5496
5500
5504
5508
5512
5516
5520
5524
5528
5532
5536
5540
5544
5548
5552
5556
5560
5564
5568
5572
5576
5580
5584
5588
5592
5596
5600
5604
5608
5612
5616
5620
5624
5628
5632
5636
5640
5644
5648
5652
5656
5660
5664
5668
5672
5676
5680
5684
5688
5692
5696
5700
5704
5708
5712
5716
5720
5724
5728
5732
5736
5740
5744
5748
5752
5756
5760
5764
5768
5772
5776
5780
5784
5788
5792
5796
5800
5804
5808
5812
5816
5820
5824
5828
5832
5836
5840
5844
5848
5852
5856
5860
5864
5868
5872
5876
5880
5884
5888
5892
5896
5900
5904
5908
5912
5916
5920
5924
5928
5932
5936
5940
5944
5948
5952
5956
5960
5964
5968
5972
5976
5980
5984
5988
5992
5996
6000
6004
6008
6012
6016
6020
6024
6028
6032
6036
6040
6044
6048
6052
6056
6060
6064
6068
6072
6076
6080
6084
6088
6092
6096
6100
6104
6108
6112
6116
6120
6124
6128
6132
6136
6140
6144
6148
6152
6156
6160
6164
6168
6172
6176
6180
6184
6188
6192
6196
6200
6204
6208
6212
6216
6220
6224
6228
6232
6236
6240
6244
6248
6252
6256
6260
6264
6268
6272
6276
6280
6284
6288
6292
6296
6300
6304
6308
6312
6316
6320
6324
6328
6332
6336
6340
6344
6348
6352
6356
6360
6364
6368
6372
6376
6380
6384
6388
6392
6396
6400
6404
6408
6412
6416
6420
6424
6428
6432
6436
6440
6444
6448
6452
6456
6460
6464
6468
6472
6476
6480
6484
6488
6492
6496
6500
6504
6508
6512
6516
6520
6524
6528
6532
6536
6540
6544
6548
6552
6556
6560
6564
6568
CONNECTIVITY vtktypeint64
521
527
289
499
228
210
533
168
389
446
394
376
413
429
426
430
17
8
7
9
370
349
342
471
170
147
183
197
215
496
474
197
181
134
435
456
128
147
151
195
199
533
261
210
532
64
98
49
132
483
138
491
163
157
139
173
456
110
450
122
192
227
497
214
432
462
461
448
51
448
432
461
51
448
440
463
250
489
462
448
509
444
435
433
459
533
433
455
476
444
509
433
476
448
459
433
308
301
296
310
289
499
527
459
310
298
307
301
115
140
100
119
151
197
147
136
514
406
415
420
201
302
441
469
464
451
441
201
461
445
464
201
480
461
464
201
519
464
441
201
365
437
349
471
463
487
448
440
17
68
20
39
157
163
127
117
299
290
270
311
367
398
471
382
214
254
221
227
256
213
239
233
326
269
311
293
407
397
302
403
409
302
403
407
469
407
302
409
461
358
445
469
437
469
358
461
151
195
147
197
54
36
40
483
499
461
448
51
448
461
457
462
223
240
232
236
459
457
448
461
195
183
160
147
134
142
110
456
128
136
151
147
78
67
59
64
58
98
532
65
102
124
87
109
256
253
432
463
65
52
121
45
329
481
314
464
480
464
461
457
314
297
267
484
500
206
417
319
513
524
338
314
417
206
502
319
72
509
103
144
468
144
509
72
431
5
6
24
503
449
527
499
479
488
453
433
440
433
453
489
461
434
464
445
443
467
434
464
434
451
443
464
457
464
461
434
467
457
434
464
441
302
401
409
401
302
402
409
409
403
302
402
441
409
469
302
524
464
470
460
436
302
366
527
431
6
43
24
445
436
527
302
445
436
302
469
424
414
514
416
469
407
436
302
302
407
436
390
436
390
366
302
524
470
464
513
387
302
403
402
397
403
387
302
174
169
496
497
166
196
497
487
459
448
499
461
199
182
456
435
435
431
486
456
447
393
519
374
477
374
447
519
400
447
374
393
389
447
446
505
400
447
389
505
384
361
478
378
319
318
331
437
321
330
336
438
511
438
523
347
364
438
347
336
387
302
402
443
401
443
402
302
498
442
488
433
522
488
498
442
433
533
442
455
533
508
442
455
168
522
435
442
431
8
17
6
431
6
17
43
431
0
8
6
280
255
262
439
341
303
439
317
58
98
49
532
334
329
439
305
314
524
464
513
456
431
501
435
501
72
35
42
85
440
161
91
475
174
440
141
461
445
201
469
445
451
464
201
445
527
434
302
171
145
146
172
408
441
393
391
408
441
401
409
408
441
391
392
408
392
401
441
408
447
393
441
408
409
469
441
445
434
464
451
445
302
201
469
201
441
519
447
385
374
372
519
385
519
393
374
225
51
449
503
444
435
433
533
433
435
442
533
435
168
442
533
435
134
72
456
387
443
402
388
373
359
443
387
373
302
387
443
387
362
443
388
210
182
435
168
280
255
439
512
440
479
453
433
483
433
479
440
499
454
461
51
51
206
454
432
91
483
479
440
51
449
454
206
51
461
432
454
91
440
479
85
388
443
377
362
387
362
359
443
388
443
383
377
401
383
388
443
401
388
402
443
259
203
444
202
440
51
476
448
476
499
448
51
441
443
401
302
401
441
392
383
441
392
383
460
242
255
462
265
265
462
439
255
373
359
527
434
373
302
434
527
351
359
527
373
364
446
376
518
99
124
121
76
276
277
295
301
308
296
301
295
307
283
298
294
441
519
393
391
441
447
393
519
385
393
519
391
473
431
486
435
431
501
435
522
473
431
435
522
512
255
462
250
439
255
462
512
250
255
462
242
337
467
278
289
530
232
244
417
364
438
446
518
471
469
446
394
364
477
446
438
449
454
499
51
444
235
459
278
351
527
359
332
284
300
272
292
289
243
459
278
358
478
436
452
406
395
452
469
500
478
485
344
246
449
275
260
291
309
449
275
451
302
441
201
434
302
443
451
445
302
451
201
445
434
451
302
441
451
443
302
471
437
349
342
465
464
470
513
265
297
305
439
341
439
519
477
334
329
519
439
443
464
470
467
410
398
514
404
182
515
119
152
445
358
436
469
437
469
452
358
469
395
452
436
289
499
459
243
431
24
43
42
514
424
418
414
373
302
397
387
170
136
141
147
339
340
355
357
514
404
384
406
528
327
345
322
471
398
514
382
299
268
270
253
187
221
189
227
528
327
322
292
503
449
499
51
499
459
476
448
412
394
418
399
446
386
376
518
222
208
195
183
366
302
397
373
446
438
504
518
520
224
277
281
471
446
386
394
223
211
236
232
449
493
306
309
355
339
325
306
525
324
530
306
256
299
318
472
530
246
516
275
496
215
239
213
458
31
4
3
62
25
458
31
458
3
431
31
473
431
31
458
436
390
407
395
2
4
3
458
19
2
458
25
32
25
19
458
405
394
418
412
405
421
412
418
405
421
418
514
394
414
399
396
326
293
311
299
405
514
418
394
349
346
370
342
514
414
394
396
519
480
201
477
411
422
514
423
496
244
463
256
174
463
475
440
174
487
463
440
256
253
463
497
496
244
474
463
411
514
422
405
400
469
408
411
473
431
458
466
413
426
425
430
424
429
419
514
430
423
514
428
185
163
192
173
514
427
424
429
424
419
416
514
441
464
443
451
411
413
423
514
413
415
426
429
363
360
347
356
466
3
8
431
17
8
431
466
466
7
8
13
17
8
466
7
466
3
13
8
483
433
488
479
442
453
488
433
443
464
460
470
413
514
406
415
441
464
519
460
441
460
443
464
167
200
476
188
514
421
422
405
476
225
188
200
167
200
483
476
334
305
439
303
413
469
411
409
384
452
381
478
382
398
514
416
365
437
485
333
485
500
344
333
367
333
485
361
329
464
314
524
437
485
333
500
466
3
431
458
12
458
3
466
465
484
457
464
466
3
12
13
164
153
213
169
521
300
527
503
162
193
196
489
225
503
238
231
507
436
366
527
366
507
371
436
507
335
366
371
507
335
527
366
457
465
464
467
168
182
119
178
329
314
338
524
329
524
519
464
480
201
464
519
341
439
303
334
462
457
480
461
255
265
262
439
174
496
169
164
328
356
326
323
477
447
201
519
293
268
270
299
459
457
461
434
467
459
434
457
248
237
254
269
88
71
151
120
323
293
326
299
523
311
336
321
328
347
523
311
386
396
471
394
326
360
356
347
346
323
356
328
108
163
104
123
459
499
527
461
461
527
434
445
461
358
527
445
358
454
461
527
459
434
461
527
454
527
499
461
153
185
151
197
370
342
346
363
253
432
472
256
363
360
356
370
256
299
472
253
299
253
523
472
346
356
347
328
346
328
347
342
328
356
347
326
256
268
299
253
168
473
182
435
446
461
469
437
168
473
435
522
473
182
119
168
119
473
168
100
523
438
321
336
100
522
473
168
370
386
363
360
328
326
299
323
328
311
326
347
328
311
299
326
386
399
396
394
370
356
363
346
349
346
356
370
226
234
240
223
500
437
319
333
382
396
416
514
377
362
470
350
350
348
362
467
312
348
350
467
359
362
348
467
443
470
377
362
443
362
359
467
396
386
471
370
337
348
467
359
337
312
467
348
235
459
467
259
384
398
404
514
496
197
215
213
135
475
141
474
188
474
475
135
167
476
475
188
519
334
341
372
439
341
519
334
475
51
188
476
358
436
527
445
475
188
135
167
263
467
259
312
263
315
467
312
496
239
215
244
188
211
474
170
362
467
470
350
350
470
377
383
443
470
362
467
443
470
383
377
174
440
161
487
236
222
232
211
153
164
197
136
151
153
197
136
438
317
477
439
196
220
212
487
392
460
380
375
392
375
383
460
153
213
197
164
443
441
401
383
441
460
391
392
441
383
443
460
379
460
380
392
379
460
392
391
214
221
254
237
278
467
235
459
289
459
467
278
214
227
268
254
289
527
467
459
249
268
270
254
460
375
383
470
350
383
375
470
443
470
460
383
256
244
239
496
214
249
248
254
69
85
47
479
91
479
47
85
88
151
71
128
214
237
254
248
290
311
523
321
248
270
269
254
139
150
123
163
519
439
480
477
481
480
464
519
214
221
187
227
477
439
480
438
248
254
249
270
266
465
263
315
263
315
465
467
143
163
108
123
143
150
163
123
214
268
249
254
253
270
249
268
225
449
51
232
187
163
143
150
496
239
256
213
189
143
187
163
452
406
384
381
406
395
381
452
522
488
442
453
497
227
247
214
214
247
268
227
335
449
503
291
253
523
290
299
358
478
507
436
253
290
270
299
478
454
507
493
309
449
335
291
478
454
358
507
441
519
391
460
379
519
460
391
385
519
379
391
182
158
515
152
212
192
173
497
289
467
527
332
337
359
467
332
266
484
261
465
175
230
216
455
316
465
266
315
316
279
484
320
159
176
193
453
439
297
329
481
439
480
481
519
131
186
137
207
116
53
57
79
439
519
481
329
312
467
350
315
286
439
262
265
218
468
181
202
134
468
202
181
203
134
468
202
444
202
468
218
478
482
454
493
449
482
454
206
444
203
235
184
203
235
259
444
379
519
385
372
166
196
173
497
497
227
233
247
453
216
455
442
265
297
439
462
462
481
439
480
212
214
497
253
462
481
297
439
497
247
233
256
486
450
431
515
162
196
166
487
159
176
453
107
228
279
508
261
452
436
381
478
196
173
497
212
469
441
201
447
441
469
408
447
446
447
469
201
461
469
201
446
373
359
434
443
497
214
247
253
373
302
443
434
443
467
359
434
453
148
216
442
168
175
148
442
170
147
197
136
474
183
170
211
350
470
375
343
315
467
350
470
315
470
350
343
210
182
168
178
450
42
43
63
453
105
107
176
453
193
216
176
453
148
176
216
243
476
499
459
366
436
371
390
478
371
436
381
485
452
437
471
384
514
406
452
448
489
462
455
487
448
489
250
17
7
466
515
434
467
359
527
533
168
442
508
228
508
175
168
175
508
442
168
228
533
508
168
467
359
527
332
275
282
517
306
471
386
518
370
518
386
471
446
485
471
437
365
518
437
446
471
384
478
485
452
337
467
289
332
5
431
6
0
435
486
182
456
473
486
182
435
182
450
486
515
182
515
486
119
486
182
119
473
182
486
450
456
218
181
435
199
184
444
203
468
184
468
203
144
203
468
134
144
182
119
178
152
509
444
184
468
444
203
468
202
62
105
522
148
444
533
433
459
458
32
25
66
476
459
444
433
17
33
20
57
463
253
432
487
220
250
253
487
497
253
463
487
497
253
487
212
253
487
250
432
101
104
108
117
530
222
232
236
188
51
225
476
225
476
231
200
456
110
134
72
88
151
136
153
368
460
375
380
368
380
369
460
379
460
369
380
82
71
128
88
100
473
458
119
496
256
463
497
496
256
497
213
128
90
106
160
167
476
483
475
475
135
483
167
282
530
324
306
128
147
106
136
446
376
386
394
475
463
51
440
354
470
375
368
368
470
375
460
354
375
470
343
188
475
474
51
475
463
474
51
223
236
234
240
128
106
147
160
325
500
482
417
51
448
463
432
432
250
462
448
463
432
448
487
432
448
487
250
487
440
489
448
448
433
489
455
440
483
433
476
235
312
467
278
337
467
312
278
498
492
488
526
498
522
526
488
14
488
26
526
128
88
136
82
128
106
82
136
205
236
223
183
128
151
136
88
183
208
160
190
193
489
242
220
193
216
489
453
453
489
455
216
242
250
220
489
275
306
530
282
205
236
234
223
205
236
183
208
147
195
128
160
183
160
208
195
183
147
195
197
91
479
40
47
232
236
240
530
222
244
474
215
222
474
197
215
222
195
215
197
183
222
197
195
222
195
208
215
474
183
197
170
234
236
274
240
205
234
226
223
517
234
282
240
205
234
236
208
355
507
478
371
309
335
449
493
274
282
240
530
530
275
282
240
225
246
260
449
226
240
234
517
156
491
138
194
194
138
200
491
156
509
491
194
194
476
491
200
476
509
194
491
54
40
112
483
183
236
223
211
495
488
27
36
183
208
190
205
183
222
208
236
183
222
236
211
435
72
492
501
37
492
48
72
509
103
48
72
492
509
48
72
435
72
509
492
161
440
174
141
309
335
493
355
355
478
507
493
448
455
459
433
440
448
433
489
253
287
494
250
253
494
432
250
253
494
523
472
253
432
494
472
253
494
287
523
181
468
435
134
103
495
48
60
495
103
48
509
495
509
48
492
218
468
435
181
218
435
533
199
131
145
73
116
444
468
435
218
440
51
475
476
475
141
440
483
475
476
483
440
129
135
167
483
129
483
167
200
17
43
57
450
199
165
181
456
284
322
300
292
112
483
135
129
129
200
138
483
129
483
138
84
232
244
51
474
463
244
51
432
244
51
432
206
244
232
51
206
474
244
51
463
284
231
258
521
481
519
464
329
454
527
449
499
493
454
527
449
335
527
503
449
493
527
335
449
471
452
469
514
452
469
437
471
465
513
484
464
279
313
484
320
266
316
484
465
26
488
18
27
469
358
436
452
18
36
488
23
18
27
488
36
527
358
507
436
18
488
15
23
26
488
14
18
316
465
315
343
315
465
470
343
315
465
467
470
474
197
164
136
174
496
474
463
496
174
474
164
174
496
463
497
169
496
497
213
496
169
164
213
483
509
495
433
75
65
98
58
322
292
327
300
238
231
521
252
272
300
521
273
521
252
273
238
473
466
458
119
486
515
466
119
466
486
119
473
440
476
433
448
260
275
291
449
495
27
488
492
26
488
27
492
491
138
200
483
284
289
243
231
351
366
373
527
527
302
366
373
459
455
448
457
459
455
457
533
162
487
440
489
225
449
232
246
530
516
306
275
225
503
449
260
291
260
449
503
174
497
463
487
174
487
161
497
135
170
474
141
235
467
312
259
111
155
171
137
16
15
14
529
15
488
14
529
15
14
488
18
341
519
372
374
477
519
341
374
354
470
513
343
316
513
465
343
354
343
513
316
507
454
358
527
465
513
470
343
316
513
354
320
14
488
526
522
485
478
384
361
125
490
64
121
224
520
277
257
132
509
483
491
31
62
522
473
498
433
495
509
532
65
64
45
116
79
57
73
49
125
59
64
137
146
145
131
199
435
210
182
113
86
78
64
456
142
122
145
368
352
524
369
354
524
470
368
368
524
470
460
368
460
369
524
354
352
524
368
435
442
498
433
68
515
17
57
522
498
435
442
435
492
498
501
435
522
501
498
435
433
498
509
435
492
509
498
433
442
453
455
218
444
263
533
231
499
476
225
264
251
294
271
225
499
476
51
329
297
314
481
297
481
457
484
297
481
484
314
110
63
42
456
66
96
458
61
452
395
381
436
63
456
110
450
78
64
86
67
116
63
53
118
436
395
371
390
436
371
395
381
501
431
35
37
456
431
42
501
501
72
42
456
37
35
501
72
110
78
63
59
295
277
296
301
11
31
3
4
87
76
95
126
122
110
59
113
283
298
301
307
137
171
146
155
456
142
181
134
134
144
468
72
468
435
134
72
65
121
52
99
456
142
110
122
456
42
110
72
456
450
63
42
56
76
87
99
87
126
130
124
118
98
49
58
129
54
112
483
138
132
84
483
135
141
475
483
91
440
161
141
440
483
141
91
135
112
141
483
417
206
244
502
446
438
461
504
358
437
461
454
156
509
103
132
491
476
483
200
260
503
273
238
521
300
503
273
225
238
503
260
446
504
437
518
446
504
461
437
52
99
70
65
164
496
197
474
184
509
156
194
222
197
474
183
476
509
491
483
476
184
194
509
222
474
232
211
244
496
474
215
164
197
496
213
390
397
302
407
390
302
397
366
469
436
407
395
505
447
446
477
400
447
505
374
354
352
320
513
364
505
446
477
354
470
524
513
354
513
524
352
120
185
153
117
431
17
466
515
102
124
99
87
76
93
77
89
450
43
431
17
515
39
68
17
76
114
89
95
87
124
76
126
65
121
98
64
121
45
52
76
463
244
432
256
281
298
310
301
244
432
502
206
256
502
244
432
87
109
124
130
264
294
298
283
474
174
475
141
174
164
141
474
126
114
76
95
64
77
76
93
490
93
64
76
121
490
64
76
264
219
506
198
506
198
219
224
76
124
87
99
87
83
99
102
494
512
462
250
494
462
432
250
289
231
499
243
243
476
231
499
355
335
507
371
355
507
335
493
493
507
335
527
532
64
49
45
58
57
53
79
277
301
281
296
281
296
301
310
265
457
297
462
462
457
297
481
45
121
64
76
45
52
76
56
267
265
457
297
12
21
466
13
431
526
501
522
501
72
492
37
501
492
526
37
501
522
526
498
155
191
146
207
483
495
488
433
498
433
488
495
498
492
495
488
220
250
487
489
53
43
63
116
98
125
64
121
99
98
65
121
45
121
65
64
49
118
53
59
446
447
201
477
461
201
477
446
289
300
527
521
118
49
53
58
231
503
499
225
196
497
487
212
161
497
166
173
65
64
98
532
438
477
446
461
477
480
461
438
335
527
327
300
322
327
527
300
111
149
158
154
116
79
118
53
179
224
186
207
116
57
450
73
484
457
508
261
7
20
39
17
111
73
137
515
7
466
21
13
486
515
431
466
137
145
146
171
131
146
145
116
431
24
42
35
131
207
137
146
17
39
7
515
217
264
219
251
137
450
73
145
515
41
7
466
180
165
145
172
175
508
228
230
73
116
145
450
146
191
155
171
228
508
267
230
7
466
41
21
218
533
263
261
9
17
20
7
435
72
501
456
5
35
431
37
431
35
42
501
431
486
466
473
522
62
31
38
17
68
57
20
526
26
492
488
96
74
61
66
17
20
33
9
182
158
180
515
515
41
39
7
455
448
457
462
486
431
450
456
182
450
515
180
182
456
450
180
172
146
177
145
180
172
145
171
92
55
41
466
152
119
133
92
174
157
497
161
229
191
219
204
266
261
263
465
185
497
192
227
174
169
497
157
267
228
279
508
137
73
450
515
63
122
116
450
92
133
152
158
379
369
519
372
265
267
455
230
508
455
267
230
379
519
369
460
60
495
27
36
533
457
261
508
60
27
495
48
207
224
186
209
199
180
165
456
204
177
172
146
364
353
374
477
505
447
477
374
364
505
477
374
510
46
29
69
69
479
47
510
69
47
29
510
69
510
46
453
69
479
510
453
471
384
452
514
384
452
485
471
384
471
485
367
367
384
471
398
398
514
384
471
162
440
487
161
161
497
487
166
199
456
182
180
204
180
191
172
161
487
162
166
493
454
507
527
207
198
146
179
191
204
146
198
191
198
146
207
191
198
207
219
493
482
454
449
191
146
204
172
191
172
171
146
191
171
172
180
306
482
493
449
435
533
210
168
218
533
261
199
204
217
177
198
204
198
191
219
204
198
177
146
219
224
198
207
353
477
341
374
431
37
501
526
22
526
37
431
219
520
224
245
111
171
155
154
30
466
55
50
131
146
179
207
149
92
158
133
209
224
241
245
131
186
207
179
137
209
207
186
137
146
207
155
481
464
480
457
462
457
481
480
111
515
137
171
145
131
73
137
450
180
145
171
171
450
515
137
111
515
171
158
111
68
515
92
450
515
180
171
515
158
180
171
44
458
28
30
50
458
466
80
30
466
12
21
454
206
437
432
454
461
432
437
432
461
504
437
442
216
455
175
442
148
216
175
525
530
516
306
325
482
355
306
482
493
355
306
140
168
119
178
502
432
319
206
256
319
502
432
256
432
318
319
432
206
437
319
432
437
318
319
80
55
466
50
61
28
44
458
80
119
92
133
80
92
466
55
100
119
140
168
96
458
100
66
96
97
61
74
66
458
62
25
472
511
299
318
299
318
511
328
342
504
318
511
511
318
342
328
62
458
100
473
62
473
31
458
286
305
439
265
280
255
512
287
105
148
176
453
280
317
304
512
66
62
458
100
61
81
94
44
458
466
80
119
10
4
2
25
30
458
466
50
335
503
300
291
273
300
503
291
231
521
499
503
335
527
300
503
61
115
94
81
61
115
81
97
61
97
96
115
61
458
115
96
115
458
100
96
61
458
94
115
115
119
100
458
494
432
438
511
61
458
66
32
458
115
119
94
494
432
511
472
432
504
438
511
432
461
438
504
438
462
461
432
438
462
432
494
478
500
437
454
478
437
358
454
437
452
478
358
485
478
437
452
500
478
437
485
341
317
477
353
472
432
318
256
432
437
504
318
472
432
511
318
432
504
511
318
34
29
529
46
34
46
522
62
105
46
522
453
439
512
462
438
439
462
480
438
480
462
461
438
516
246
449
275
482
449
516
206
306
482
449
516
516
449
306
275
516
246
232
449
516
232
206
449
285
439
286
303
484
508
279
261
533
508
261
228
267
484
508
279
162
487
489
196
193
196
489
220
196
220
487
489
283
264
294
271
283
520
277
281
283
277
301
281
264
520
281
506
413
407
469
409
287
255
512
250
494
287
512
250
276
245
257
520
231
521
289
499
219
264
217
198
522
148
442
168
100
168
148
522
522
148
453
442
105
453
522
148
100
522
148
62
276
277
257
288
253
268
214
247
253
268
249
214
519
464
524
460
206
500
437
319
420
419
429
514
367
365
485
333
485
471
365
367
420
426
415
429
224
209
207
245
94
44
458
61
57
450
43
116
57
43
53
116
518
347
438
511
518
438
504
511
363
518
347
376
489
242
250
462
508
455
533
457
508
455
457
267
210
228
533
261
256
268
253
247
225
503
499
51
231
258
521
252
521
284
300
272
408
469
409
411
193
242
489
216
478
325
339
344
355
339
478
325
361
339
478
357
339
478
357
355
344
339
478
361
465
464
467
470
466
55
41
21
30
21
55
466
85
162
453
69
440
162
453
85
241
245
224
257
257
245
224
520
394
399
414
418
514
418
394
414
91
479
483
40
194
476
243
184
91
483
141
112
194
200
231
476
91
40
483
112
19
10
25
32
342
511
328
347
518
347
511
342
518
511
504
342
106
90
128
82
82
128
71
90
291
260
503
273
520
264
271
219
265
457
455
267
455
462
457
265
265
462
242
455
289
284
521
231
272
252
521
258
503
527
521
499
521
503
231
238
258
284
521
272
5
431
0
1
5
24
431
35
456
450
42
431
184
509
468
144
184
156
509
144
476
444
184
509
495
27
492
48
26
492
27
48
37
26
48
492
493
355
306
309
400
408
447
393
4
458
25
31
430
427
428
514
430
514
423
413
430
425
423
428
430
413
423
425
175
230
455
508
193
489
162
453
442
455
508
175
453
433
455
489
264
219
520
506
520
506
219
224
289
284
300
521
465
457
484
261
300
322
289
527
289
300
284
322
364
518
376
347
364
438
518
347
478
482
500
454
454
482
500
206
120
185
117
101
185
157
117
163
12
2
3
458
280
304
287
512
417
232
244
206
482
516
417
206
417
232
206
516
52
70
99
76
52
56
70
76
52
76
99
121
324
339
306
325
120
151
88
153
474
136
170
197
38
22
522
14
522
34
14
529
370
471
342
518
518
386
376
363
325
324
525
306
325
482
306
525
325
417
482
525
461
201
480
477
259
444
218
202
444
184
235
278
525
482
306
516
525
417
482
516
34
529
522
46
46
510
522
453
507
478
371
436
498
492
526
501
14
526
26
37
37
526
26
492
483
488
36
40
23
36
488
40
487
212
253
220
483
488
495
36
494
438
523
511
494
511
523
472
420
410
419
514
429
413
415
514
420
415
514
429
420
514
406
404
410
416
514
398
410
419
514
416
410
420
404
514
22
37
526
14
522
22
526
14
139
163
192
150
139
123
127
163
185
153
157
169
163
123
127
104
316
484
513
320
185
497
227
233
364
376
446
389
103
156
144
509
364
353
438
330
330
353
438
317
438
353
477
317
364
353
477
438
28
19
2
458
28
458
12
30
266
279
261
484
30
12
466
458
341
317
439
477
58
79
118
75
49
118
125
98
58
75
118
98
49
125
64
98
58
53
118
79
43
63
116
450
118
116
63
122
495
132
60
103
132
495
483
509
132
60
483
495
495
132
103
509
3
0
8
431
342
518
347
363
22
1
431
5
518
386
363
370
328
511
523
347
295
277
276
288
382
514
471
396
396
394
514
471
276
277
301
283
349
318
342
437
342
437
318
504
518
504
437
342
518
437
471
342
293
270
311
299
293
270
269
311
293
270
268
254
518
370
363
342
209
241
224
186
16
529
14
34
16
29
529
34
207
224
245
219
498
492
509
495
207
224
198
179
46
29
529
510
46
529
522
510
468
509
435
72
515
73
57
68
111
68
73
515
57
515
17
450
378
357
361
478
357
355
478
378
479
488
483
40
111
154
158
171
523
438
287
321
317
438
330
304
512
287
494
438
494
438
287
523
330
438
321
304
206
232
51
449
263
459
259
467
325
482
478
355
482
478
355
493
325
500
478
482
344
478
325
500
244
474
232
222
183
211
474
222
530
246
232
516
510
23
40
47
510
479
47
40
510
47
29
23
125
59
64
113
339
306
531
324
59
78
64
113
125
118
59
122
49
125
118
59
84
54
129
483
87
56
99
83
500
482
417
206
454
500
437
206
108
117
104
163
283
264
271
520
28
19
458
61
61
19
458
32
199
533
210
435
218
444
259
263
281
506
520
224
324
306
531
282
382
396
471
370
510
488
40
23
530
232
417
516
216
489
455
242
276
520
257
277
276
277
283
520
378
355
478
371
450
73
57
515
285
262
439
280
132
491
138
156
171
137
145
450
132
509
491
156
452
514
406
469
286
439
305
303
272
521
252
273
238
521
503
273
136
170
141
474
333
437
331
365
163
104
127
117
478
371
381
378
444
459
259
263
455
242
489
462
22
31
38
522
431
31
22
522
274
234
240
282
38
34
14
522
282
275
517
240
274
236
530
240
529
488
14
522
22
522
526
431
54
483
84
60
54
36
483
60
483
495
60
36
22
11
431
1
15
510
29
23
510
529
15
29
16
29
15
529
529
15
488
510
510
23
15
488
512
494
462
438
314
513
464
484
266
484
316
279
267
313
484
279
267
314
484
313
450
17
431
515
33
43
57
17
68
92
39
515
455
230
216
265
163
117
185
108
365
349
382
471
339
340
306
355
38
34
522
62
31
473
522
431
473
62
522
100
317
438
304
512
512
317
438
439
364
330
438
336
369
352
524
338
204
217
219
251
229
251
219
271
320
352
313
513
406
395
469
407
101
185
117
108
344
478
485
361
485
344
361
333
290
253
287
523
512
438
304
287
304
438
321
287
242
455
216
265
28
2
12
458
483
132
84
60
352
524
338
513
352
513
338
313
484
313
513
320
465
316
484
513
329
524
338
369
519
524
369
460
363
346
347
342
363
347
346
356
474
211
188
232
164
141
474
136
474
170
135
188
192
187
150
163
163
139
192
173
523
336
347
438
414
514
416
396
305
297
329
439
286
262
439
285
529
488
522
510
63
118
122
59
59
53
63
118
59
113
110
78
122
59
125
113
122
110
63
59
476
433
509
483
243
184
476
444
243
278
184
444
327
527
345
322
289
332
527
322
267
484
457
508
481
464
457
484
267
457
484
297
497
214
212
192
400
469
447
408
400
469
411
405
232
188
474
51
510
479
40
488
280
317
512
439
351
527
332
322
345
335
527
327
11
431
3
31
105
522
46
62
22
431
11
31
69
453
46
107
11
3
431
1
92
39
515
41
92
466
119
80
456
142
165
181
92
158
515
111
111
92
158
149
262
255
242
265
476
459
243
444
444
459
243
278
243
194
231
476
471
437
446
469
382
349
370
471
450
43
42
431
53
57
33
43
114
490
76
93
114
76
89
93
76
124
121
126
114
76
121
126
114
490
121
76
381
384
478
378
515
119
92
466
158
92
515
152
515
92
119
152
515
466
92
41
80
94
458
119
50
80
94
458
44
50
458
30
163
185
187
189
86
64
93
77
86
490
64
113
86
490
93
64
86
64
77
67
64
113
490
125
284
231
243
258
475
463
174
474
188
51
232
225
427
514
424
418
418
421
427
514
263
457
459
467
218
444
533
435
444
533
459
263
263
533
459
457
530
275
240
246
530
246
240
232
83
56
99
70
56
76
99
70
185
187
189
227
510
479
488
453
185
213
497
233
46
453
105
107
510
488
522
453
314
338
513
313
314
313
513
484
192
227
214
187
185
173
192
497
185
192
187
227
185
157
173
497
185
157
153
117
345
527
366
351
345
322
527
351
345
335
366
527
479
85
453
69
440
85
453
479
185
153
213
197
185
153
169
213
185
157
497
169
497
253
247
256
161
173
157
497
185
213
169
497
256
213
233
497
263
465
457
467
269
270
293
254
274
530
324
282
389
469
446
447
389
469
405
394
471
394
514
469
120
151
153
185
405
469
514
394
364
389
446
505
413
406
469
407
514
413
469
411
514
406
469
413
411
469
514
405
162
161
85
440
159
162
69
453
159
453
193
162
162
489
440
453
481
464
484
314
219
229
204
251
204
198
219
217
467
459
527
434
339
306
340
531
3
1
0
431
367
382
471
365
37
431
5
22
285
439
317
280
439
303
285
317
244
232
530
222
199
181
435
456
275
449
306
309
525
417
516
530
331
437
349
365
367
485
384
361
389
469
394
446
389
400
405
469
400
469
389
447
349
331
318
437
331
319
437
333
281
283
298
301
281
283
264
298
514
421
427
428
514
421
428
422
430
429
514
413
423
422
514
428
430
427
514
429
299
523
328
511
523
299
328
311
290
523
311
299
523
311
347
336
299
472
523
511
523
321
287
290
271
264
251
219
283
281
264
520
444
468
509
435
235
459
259
444
44
458
50
94
139
157
163
127
185
157
163
173
163
185
192
187
2
458
25
4
25
19
2
10
63
122
450
110
456
142
145
165
456
145
450
180
369
334
329
519
180
145
165
456
456
122
450
145
450
122
116
145
519
334
372
369
329
524
369
519
465
457
261
263
263
533
457
261
159
107
453
69
CELL_TYPES 1642
10
10
10
10
10
10
10
10
10
10
10
10
10
10
10
10
10
10
10
10
10
10
10
10
10
10
10
10
10
10
10
10
10
10
10
10
10
10
10
10
10
10
10
10
10
10
10
10
10
10
10
10
10
10
10
10
10
10
10
10
10
10
10
10
10
10
10
10
10
10
10
10
10
10
10
10
10
10
10
10
10
10
10
10
10
10
10
10
10
10
10
10
10
10
10
10
10
10
10
10
10
10
10
10
10
10
10
10
10
10
10
10
10
10
10
10
10
10
10
10
10
10
10
10
10
10
10
10
10
10
10
10
10
10
10
10
10
10
10
10
10
10
10
10
10
10
10
10
10
10
10
10
10
10
10
10
10
10
10
10
10
10
10
10
10
10
10
10
10
10
10
10
10
10
10
10
10
10
10
10
10
10
10
10
10
10
10
10
10
10
10
10
10
10
10
10
10
10
10
10
10
10
10
10
10
10
10
10
10
10
10
10
10
10
10
10
10
10
10
10
10
10
10
10
10
10
10
10
10
10
10
10
10
10
10
10
10
10
10
10
10
10
10
10
10
10
10
10
10
10
10
10
10
10
10
10
10
10
10
10
10
10
10
10
10
10
10
10
10
10
10
10
10
10
10
10
10
10
10
10
10
10
10
10
10
10
10
10
10
10
10
10
10
10
10
10
10
10
10
10
10
10
10
10
10
10
10
10
10
10
10
10
10
10
10
10
10
10
10
10
10
10
10
10
10
10
10
10
10
10
10
10
10
10
10
10
10
10
10
10
10
10
10
10
10
10
10
10
10
10
10
10
10
10
10
10
10
10
10
10
10
10
10
10
10
10
10
10
10
10
10
10
10
10
10
10
10
10
10
10
10
10
10
10
10
10
10
10
10
10
10
10
10
10
10
10
10
10
10
10
10
10
10
10
10
10
10
10
10
10
10
10
10
10
10
10
10
10
10
10
10
10
10
10
10
10
10
10
10
10
10
10
10
10
10
10
10
10
10
10
10
10
10
10
10
10
10
10
10
10
10
10
10
10
10
10
10
10
10
10
10
10
10
10
10
10
10
10
10
10
10
10
10
10
10
10
10
10
10
10
10
10
10
10
10
10
10
10
10
10
10
10
10
10
10
10
10
10
10
10
10
10
10
10
10
10
10
10
10
10
10
10
10
10
10
10
10
10
10
10
10
10
10
10
10
10
10
10
10
10
10
10
10
10
10
10
10
10
10
10
10
10
10
10
10
10
10
10
10
10
10
10
10
10
10
10
10
10
10
10
10
10
10
10
10
10
10
10
10
10
10
10
10
10
10
10
10
10
10
10
10
10
10
10
10
10
10
10
10
10
10
10
10
10
10
10
10
10
10
10
10
10
10
10
10
10
10
10
10
10
10
10
10
10
10
10
10
10
10
10
10
10
10
10
10
10
10
10
10
10
10
10
10
10
10
10
10
10
10
10
10
10
10
10
10
10
10
10
10
10
10
10
10
10
10
10
10
10
10
10
10
10
10
10
10
10
10
10
10
10
10
10
10
10
10
10
10
10
10
10
10
10
10
10
10
10
10
10
10
10
10
10
10
10
10
10
10
10
10
10
10
10
10
10
10
10
10
10
10
10
10
10
10
10
10
10
10
10
10
10
10
10
10
10
10
10
10
10
10
10
10
10
10
10
10
10
10
10
10
10
10
10
10
10
10
10
10
10
10
10
10
10
10
10
10
10
10
10
10
10
10
10
10
10
10
10
10
10
10
10
10
10
10
10
10
10
10
10
10
10
10
10
10
10
10
10
10
10
10
10
10
10
10
10
10
10
10
10
10
10
10
10
10
10
10
10
10
10
10
10
10
10
10
10
10
10
10
10
10
10
10
10
10
10
10
10
10
10
10
10
10
10
10
10
10
10
10
10
10
10
10
10
10
10
10
10
10
10
10
10
10
10
10
10
10
10
10
10
10
10
10
10
10
10
10
10
10
10
10
10
10
10
10
10
10
10
10
10
10
10
10
10
10
10
10
10
10
10
10
10
10
10
10
10
10
10
10
10
10
10
10
10
10
10
10
10
10
10
10
10
10
10
10
10
10
10
10
10
10
10
10
10
10
10
10
10
10
10
10
10
10
10
10
10
10
10
10
10
10
10
10
10
10
10
10
10
10
10
10
10
10
10
10
10
10
10
10
10
10
10
10
10
10
10
10
10
10
10
10
10
10
10
10
10
10
10
10
10
10
10
10
10
10
10
10
10
10
10
10
10
10
10
10
10
10
10
10
10
10
10
10
10
10
10
10
10
10
10
10
10
10
10
10
10
10
10
10
10
10
10
10
10
10
10
10
10
10
10
10
10
10
10
10
10
10
10
10
10
10
10
10
10
10
10
10
10
10
10
10
10
10
10
10
10
10
10
10
10
10
10
10
10
10
10
10
10
10
10
10
10
10
10
10
10
10
10
10
10
10
10
10
10
10
10
10
10
10
10
10
10
10
10
10
10
10
10
10
10
10
10
10
10
10
10
10
10
10
10
10
10
10
10
10
10
10
10
10
10
10
10
10
10
10
10
10
10
10
10
10
10
10
10
10
10
10
10
10
10
10
10
10
10
10
10
10
10
10
10
10
10
10
10
10
10
10
10
10
10
10
10
10
10
10
10
10
10
10
10
10
10
10
10
10
10
10
10
10
10
10
10
10
10
10
10
10
10
10
10
10
10
10
10
10
10
10
10
10
10
10
10
10
10
10
10
10
10
10
10
10
10
10
10
10
10
10
10
10
10
10
10
10
10
10
10
10
10
10
10
10
10
10
10
10
10
10
10
10
10
10
10
10
10
10
10
10
10
10
10
10
10
10
10
10
10
10
10
10
10
10
10
10
10
10
10
10
10
10
10
10
10
10
10
10
10
10
10
10
10
10
10
10
10
10
10
10
10
10
10
10
10
10
10
10
10
10
10
10
10
10
10
10
10
10
10
10
10
10
10
10
10
10
10
10
10
10
10
10
10
10
10
10
10
10
10
10
10
10
10
10
10
10
10
10
10
10
10
10
10
10
10
10
10
10
10
10
10
10
10
10
10
10
10
10
10
10
10
10
10
10
10
10
10
10
10
10
10
10
10
10
10
10
10
10
10
10
10
10
10
10
10
10
10
10
10
10
10
10
10
10
10
10
10
10
10
10
10
10
10
10
10
10
10
10
10
10
10
10
10
10
10
10
10
10
10
10
10
10
10
10
10
10
10
10
10
10
10
10
10
10
10
10
10
10
10
10
10
10
10
10
10
10
10
10
10
10
10
10
10
10
10
10
10
10
10
10
10
10
10
10
10
10
10
10
10
10
10
10
10
10
10
10
10
10
10
10
10
10
10
10
10
10
10
10
10
10
10
10
10
10
10
10
10
10
10
10
10
10
10
10
10
10
10
10
10
10
10
10
10
10
10
10
10
10
10
10
10
10
10
10
10
10
10
10
10
10
10
10
10
10
10
10
10
10
10
10
10
10
10
10
10
10
10
10
10
10
10
10
10
10
10
10
10
10
10
10
10
10
10
10
10
10
10
10
10
10
10
10
10
10
10
10
10
10
10
10
10
10
10
10
10
10
10
10
10
10
10
10
10
10
10
10
10
10
10
10
10
10
10
10
10
10
10
10
10
10
10
10
10
10
10
10
10
10
10
10
10
10
10
10
10
10
10
10
10
10
10
10
10
10
10
10
10
10
10
10
10
10
10
10
10
10
10
CELL_DATA 1642
FIELD FieldData 1
color 1 1642 double
3.4017729522827964 3.6217794045852827 3.7571635201955456 5.144220044790995 6.01349387739203 4.804984498317777 5.247816339179052 3.7186755846186017 3.350892972432338 3.8062752856824766 3.687146191802823 3.4029110691850906 3.7278068042669776 4.339692363392403 4.567985494595692 4.6619715407760065 3.2392922871398993 3.4680673961384256 3.3008462360292685 3.805467153096181 3.13762732304823 3.236888212647329 3.127364287403493 3.222812477919114 4.933160613571311 3.5319036163004895 4.093556666373793 4.990470243198382 5.591664016240245 4.15770554164891 3.396437385512242 3.549947981071097 3.4089833189394847 3.472444368903192 3.2125679637144158 3.2907368414308085 3.277007627863079 6.07483684821041 3.9633618447402594 4.609955651568067 3.7147648572605774 4.848773313728775 5.4436401289403635 5.027488308710851 3.3605374151913003 3.339467846201999 3.4214569068963208 4.04823768312127 3.6605704324987633 4.888433635475675 4.276303785602789 3.573085619818943 3.229851766792288 4.536597893438298 3.478574783230271 3.2769512399875755 3.8218267565642012 5.002917488700073 6.097418451778263 6.671300889944984 5.928516113671791 3.0793882643573345 4.7323110282431085 4.870276685119986 3.7252154986231147 4.084366558530051 3.3853402343644308 4.664061043184757 3.560818203290645 3.3376944848966126 3.2364024503207762 3.2681141658188686 4.212320108528437 3.5705319098699464 3.367358119339365 3.939843915283933 3.3753328655226236 3.7597082098162766 3.449106788576757 4.008793699416169 3.7868803024510393 3.8795974963127193 3.450828646261088 3.097433107788681 3.3185477871259326 3.5847198890057705 3.8262406980708303 3.687007739199856 3.2432303158771574 3.373556803859991 3.267361788655284 3.6249661521014556 3.7876750688319074 3.4768876646987206 3.487360075418629 3.4424447862704146 3.89666850945133 3.5349426823310144 3.527723607483455 4.1407128945698854 3.4320787421519516 3.2169680631051425 3.0286663970651735 3.4519099214181175 3.950561522394192 3.800867267149791 3.281473249589925 3.548838786915967 3.6062392344433354 3.6794122158060074 4.111377492481464 3.264504108927913 3.901335355132004 4.152860055977621 4.098881309561859 3.1689139060404563 3.855831818401775 3.2564837844991406 3.7819951844743303 4.5066471660380945 3.393293058083879 4.250760854628351 3.6277708731055145 4.335499747879289 3.946832896878713 4.103924056768402 4.08972891133232 3.5242315798107327 3.767834192732591 3.682764253538186 4.111963931493092 3.8353807202840797 3.7330098581364655 4.305664844209515 3.4957911653367573 3.32006438127973 3.500655759863668 3.3270247084450397 3.8343945172724734 3.269505956339701 3.8269663711807307 3.914053904991641 3.1567781483392734 3.5601218490132234 3.7200652356425596 5.062636670243005 3.2060167377208266 3.327396926740915 3.240266134149426 3.6875518010391852 3.4770804545308454 4.219868101801276 3.764532701889285 3.2186503689116868 3.6921082877224634 3.776527010797353 3.238634364686171 3.231326960096452 3.565542613691269 3.519639377188839 3.35806001602918 3.367307027720127 3.577840282170239 3.5025692114308096 3.5062866308259344 3.2863733997582147 3.3141992398358537 3.3134883448574177 3.9238036793348674 3.9308613911779626 3.173112672737728 3.2284542884442224 3.3099045891518513 3.5355405822481036 3.6143826404414505 3.9055234660667 3.123830140889056 4.059600384032514 3.734557977515567 5.028192274821004 3.6180778623133194 3.971009514818425 3.9595076816337884 4.725314322960986 4.359478979520634 3.5514119587479955 3.2382513969185736 3.9294604857856466 3.4357029829497696 3.9208579785907864 3.2879903378764443 3.40810674753712 3.367148785552898 4.065295902804302 4.652905345346622 4.149389576779145 3.372637242360068 3.1788757517221655 3.315068652536511 3.2003670874584778 5.375268030766078 4.9137169642897485 5.8328206011766595 4.123717119095394 3.40655802390599 4.268165966297795 3.4542383790915943 3.5195436578100887 3.3193561495308885 3.962843478990961 3.467111147445848 4.218475961697823 3.5084381357136825 3.386370862075116 4.799240403522358 3.1715695405009403 3.756749649672455 3.4307346432606702 4.2763462024616645 3.280890299753174 4.868336212913194 5.496793497971176 3.4944613086940453 3.7652212962855316 3.473076504722864 3.6363261030072653 4.096428667185101 3.6166571596871173 3.3636185481021013 6.09802666467077 6.577894248976303 4.599876575643562 6.676168897645663 4.38346324571827 3.567151748352282 4.3793486010333655 6.757041165726657 4.594884413944617 3.1993611296243043 5.580151504860868 3.9337713623711155 3.5875104076655684 3.5374997131527284 3.4457648837241286 4.975641210908023 3.653761880959483 3.8838586920068927 3.9847733833110386 4.683982565195429 4.497455409878933 3.654743706623948 3.7889815993667013 3.448222440865711 4.293668270453975 3.598755181238321 3.2872862717993643 3.583230081883969 3.889701156075874 3.719816313097918 3.378620540827391 4.752706697589286 4.571996387271684 4.32202606772533 3.7983887974962034 5.166872353658972 3.776972688532828 3.594375842233348 5.672422639009263 4.132963287469881 3.1601969657503393 4.281803213733821 3.7364697786974417 3.3285788387119823 3.274195543440376 3.2998681268569134 3.851474827696166 3.918001793784895 3.5795331839668045 3.7872534291833158 5.058208992869199 3.08747426001917 4.362080014593706 5.452792139546905 3.370918343662897 3.1045174524121792 4.041099682461061 4.0119537684356334 4.6788945859642705 5.604452094718629 3.102972765538041 3.9320172805602014 3.8695085708238124 3.9978044044910037 3.8366257897041214 3.1407849748487116 3.530357676999782 3.2415947311328286 4.324326790947995 3.331049303485172 3.3785577312558286 5.4940443203451546 3.831349455685649 4.291595999418833 4.567173424954108 3.822618036610307 3.8958793216985654 3.7745511266239182 4.2444030559554635 3.096245674242544 4.335441610919109 3.6835585076736534 4.752954081227947 4.012102418323759 3.34132486790764 3.260968138304113 3.449141774523759 3.6685055894090883 5.584723288011867 4.21481557642022 3.833422845976286 3.478970644102053 3.2139222877063975 3.5842394128545694 3.466192880992013 3.1590234521682707 3.40596608365187 6.216713901915188 4.532281919586168 3.4516600229026193 3.090128235741716 4.200459258909307 3.7846105343145444 4.777005608426462 4.250554062430302 5.211805635105691 3.0938772611110275 3.844951352467215 3.6827304972910273 3.825367219041756 4.07470783170655 4.885754539536068 5.083975453648523 4.181281385237281 3.671862439020829 3.63619532971113 6.209535043056966 7.725997534081921 3.651763631741484 3.747127138789065 4.148414235579828 3.9647103282428438 3.9235766813839037 3.5216970387402067 3.5172538924232373 4.223089621081471 5.56764158855953 3.575148208416583 4.868135592185973 3.7461451491156095 3.8714859452673314 5.399101980066859 5.622402491493267 3.1815511364404063 3.6611014603044536 3.270682164772422 3.415163079158714 3.465592027382679 3.3545388822547615 3.93566233797668 3.9815710504968225 3.972123434532806 6.273514244030671 5.0567773845600295 3.308135970859818 3.443652165795281 5.008654225588942 4.382910466698549 6.282071790966101 3.883645935550264 4.089339508436351 4.386638550282376 4.083186245921049 4.0689169254876925 3.439500377437884 4.249355358718054 4.043071558563564 3.6612274044988844 4.196053896970587 3.5024940170001058 3.2785909137853007 4.409899934249591 4.302639995832638 3.4733164549462234 3.807936057465243 3.734296469695188 5.172742152734531 4.240003398389915 4.054118008622055 3.6276999145630064 3.5051232342268546 3.6311602608272127 4.484805109783855 3.8176958618126617 3.1536964735953372 3.433642551791419 3.509734943277425 4.42900783525808 3.4785228717056516 3.389221146601194 4.325251637334742 3.8419794967824936 5.487223234090292 4.273504909917197 3.532207095263664 3.549438587108568 3.6894649368074384 4.021221531194809 4.944725060379088 3.7805312155338724 3.4477231672310897 3.7345256223049543 3.160590537686147 3.7413568591572135 4.51188790900558 4.185956387037314 4.255166472820946 4.776483393334087 3.3450653695739128 4.454737797673038 3.649353903372289 3.8204883026036476 3.1233466109578996 3.934091467269125 3.9201205785962543 3.2591457953526044 3.0724884355557704 4.733686017120132 4.360704290132416 3.515892265081512 3.9801742484564584 3.8226388902913055 3.612504133725539 3.3028922194195602 4.227247148524801 3.5346082339677087 3.5043235699491553 3.4546959836418116 3.568694292252714 3.756028265920211 3.323386615885423 4.360198706470603 3.8583951161398775 3.202669437761831 3.9437241371560847 4.7330273800500695 4.223680634891504 3.7491969380929517 3.6878937092654533 3.79856836467626 3.6304376651702133 4.697184430567274 3.96758678280626 4.04962332813362 3.799215880643206 4.942214318264996 3.198341392774183 3.7688834428016587 3.4426409096636195 3.151854534380834 3.487316251592116 3.640769452447099 4.197427634673013 4.11255603995107 3.540812312773008 3.670300099273167 4.211166918951535 3.530192416978126 3.171497112067176 3.9882614767315596 3.6604478967181078 3.2381263277852037 3.815759871209093 6.688242867847499 3.702090226226841 3.8600076715959424 3.61434878661112 3.6316698010564674 4.573245324130529 4.355280814580629 3.2649226213809524 4.713697774100066 3.320232891936852 3.214213595787854 3.1807162159504174 3.880162169193565 3.4253184833335575 3.9448809625261747 3.609462936954553 3.3725056072494106 3.731896300972365 3.3872630771545365 3.3556843186473904 3.7383061914633746 3.853397804329148 3.8829279863746766 3.828995964838493 3.0544784920357215 3.5379612412997123 3.3248592403261683 4.514274601361577 3.239081938493931 3.270296194634129 3.3075953123762605 3.8398185867630468 3.753015252286013 3.043646288325091 3.3160434860508006 3.4101990326066565 3.475432970599886 3.83400152649255 5.122159418767906 3.89933767288048 3.09320633990067 3.5464260104071887 3.3773001527552564 5.9734475170789185 3.748384019197423 3.778555336777599 3.871744720266088 3.5796876500594568 3.137738410993749 3.7496950224790204 3.4125412864485374 3.446314314946971 3.8420477759311704 3.105626650499274 3.5827309994447796 4.0423530004533585 3.833002945257369 3.430967602547716 4.455519549825119 3.474926940600255 4.31599757938516 4.286160964050311 6.948584125434934 3.4838130406211087 3.5985035501968627 3.1235929713804667 3.5036822948323425 3.275759175509473 3.930446464581394 3.168602731572545 3.4856789429296113 3.7079920795321817 3.86764925988283 3.394307108840785 3.7744390741059974 4.197996683531275 3.846273775279936 3.515938458721885 3.6018371083752845 3.1826411750425927 6.652324668703215 3.305413970969951 3.6085901443750443 4.923497810995729 3.4361052481004726 3.387461073941994 3.5915562986192264 5.974392884892925 4.197670396029629 3.9433787695556144 3.371129243876645 3.381139941821699 3.6176780337179837 5.849132416067211 4.186946317743199 3.413820490331269 3.7060412810421943 4.256391866631537 3.567850456701888 3.984307757129085 4.0568838428378475 3.383569771887956 4.167792407884102 3.6609530502514285 3.413924138998474 3.518209181990519 3.219712633278139 3.2418144610131083 3.6364706298976617 3.678852094661734 4.001954312962667 3.837056985784303 4.506706118269304 3.8683452550242348 3.737122579832952 3.3105735639175493 3.451780686776552 3.206965559830943 4.081653679870721 3.690812762026948 3.3748456881475475 3.4151811124769926 3.7125354761604887 3.5779631800492924 3.463373917820422 3.3142028069404175 3.3283968665819588 3.125657393167695 5.412242933891395 3.7881315954435544 3.5447967043903286 3.42741104072916 3.7021384583876906 4.097175717077523 3.5018110334147674 3.6878771751838286 3.38132854108302 4.298082827192599 3.236714449637255 3.3903641993018483 3.4235818706445396 4.0829586501457396 3.366889786775413 3.9646942916892463 3.8777028623507848 3.188804493423659 3.5429213302737916 4.764351252319325 3.2096516312455936 3.6146938771671575 3.694418092279429 5.309532881196458 4.9745399906220635 4.504915710900659 4.654785204891936 4.650757022087778 3.456030673204925 3.277666192449791 4.0444513601360494 5.05873534084421 3.5672085220836895 4.162647117118097 4.646446657482037 4.475457235114278 3.695898016273324 3.364843174881939 3.518640117937138 3.5676868929742693 3.8286684413309646 3.2355649416304413 3.939359007681676 3.427915386231661 4.354588253867438 3.5874151182134346 5.104324974353756 4.186647017399976 4.149608736297191 3.80385485892241 3.2151259530872895 4.1154933613459335 3.565245036474967 3.4719572693201433 5.234289845785026 3.5255175935702274 3.1660382961388867 3.27088632613788 3.3366622063025035 3.1824490486878445 4.020066446800149 3.8086391080911395 3.4467948222900664 3.637665243951473 3.683274300702289 3.025594918296035 4.115059724780548 4.056890390202868 3.7856449885560624 3.571801227416466 4.969215042405086 3.856176780439623 4.121027857442672 3.495257419111443 3.6391284852056094 3.8312577361683657 4.731026223713747 3.4541740936410457 4.018602142619272 6.149763679574352 3.6946079609285185 4.3999273771436185 3.411216143521221 3.5612111513909404 3.51570450749859 3.4465359368841413 3.965923018293892 3.3503288652344425 4.404561592392043 4.209603228069204 3.501555224021974 3.7336390476722765 3.9635589800511637 4.418020696004453 3.3084926776662926 3.9949973118466198 3.4994327677053145 3.696071267214195 3.392743382758583 3.689042464298599 3.4491602659896 3.2006964007642136 3.516824676437856 3.399674432496728 3.3798485055672236 3.363148997521269 3.500624463076779 3.8932831166850597 3.2728568600853456 3.806140911590763 3.3062726716048103 4.076720408029397 3.1879053385793363 3.4156464776842443 4.914589689571248 4.379321700155092 6.354277492381188 7.107416897522095 3.155148575079335 3.226732052837767 3.2539717681609845 3.265897397665072 3.4255775701719027 3.3043116849066836 3.2915488004207565 3.359472079946349 3.2995917762128126 3.7766663493542083 4.173541871009675 6.510710415224948 4.395028698784241 3.7471312369626304 3.6795431276875714 3.7832487853059416 3.2245952420054023 3.5883252463545725 3.3707220440869627 3.6842526622872955 3.2472326354743886 3.093656325742279 4.276923706771501 4.633251020137856 5.336444094381826 5.539838460847734 3.5764691616440873 3.678392690093455 3.6264071562432316 3.5764499834087498 3.127299839834585 3.3643733832517446 3.3668103891750327 3.670597244736158 3.5478893063146137 3.157864792588328 3.650236699128488 3.5611920077565857 3.113679582329361 4.356781841275964 4.2687829605489345 3.4850461693765697 3.3058978544056754 3.6249327357000327 3.641646292046594 4.1218923748699074 3.946282156395949 5.676636932830944 4.198852303804801 4.710804213620621 4.26771169558862 3.2246375724939953 3.7042790193407145 3.2936108230402295 3.2972827622231367 3.7962051571429307 3.4984678859678047 3.7802532777072506 3.669095051148615 4.128793730537018 3.7589705689535697 3.4380307473345564 4.0148040781857475 3.261508731098135 3.6462858360472308 3.168389842682411 5.5824920832298615 3.0806709579787563 3.9152832588293416 3.7547645269632923 3.7375344333579994 4.76575076478561 3.5202688060403817 4.291733196427734 4.945157369367896 4.918588979772954 4.014992336908875 3.623535816943994 4.269099200433866 3.5426671229818822 3.3519880916159024 3.4765612032270283 3.4962875480939446 6.363773506622518 4.321621513131734 4.707178134395398 6.080622800306582 5.688700185071964 4.382442002233878 5.612708802282773 3.369351146511605 3.5733745743165617 3.8861844420438154 5.209071555011142 5.361693784317793 4.258783317968839 4.5084018883654 4.8498275031428335 5.853401367015848 4.629003030546858 3.08974063372843 3.849460301787261 3.9869036373208613 3.601511237439145 3.438565868338316 4.494765032155566 3.3822609713209544 3.459761461426193 3.5074162712853045 3.8347430540433605 3.8607755644216435 3.199363180900329 3.5405244323242298 3.2926457174105566 4.003068817393531 4.006610134352043 6.846458258268843 3.2646675752103413 3.8377444384471384 3.401907865105547 3.9141843190966688 4.354371279306317 3.507796406296782 3.713358391865222 4.493092750506388 3.5091137245546897 3.9526609333089127 4.150576440657631 3.1172258463772833 3.765577219254689 3.4816568741471494 3.3697709133156355 3.36424925637561 3.841114397936567 3.3159530169632614 3.3986958492867307 5.748154076943944 4.755825953524727 4.340259257154472 4.687284082102541 4.821424443730761 4.456630063741728 3.123233357511734 4.9841727631088 3.406144222081674 5.42223652923441 4.241348871704707 4.1040035702540365 5.686006132455004 3.823808648347322 3.1456804207154456 3.9124065620633948 5.300368226362818 4.422636650409884 4.243771294615539 4.93400430319646 4.75493803819888 3.995397164618412 4.102991795350615 7.42330213550316 3.2382880240136895 4.025924928234458 5.564644870775965 4.738315730530379 3.9551905686418363 3.341762871051309 3.7431292586355895 6.563475506001636 4.568250428671341 5.2772679825208355 5.016411187059133 4.1887340389426395 3.6144139131126227 4.644170567334059 7.342541990964979 4.143713335168321 3.282525285850088 4.022188463994725 3.23598723676427 3.4439011225660052 3.44545946898151 3.4676624444852564 3.4479318012711353 3.5432396310380736 3.9215352351264583 3.9847787592514696 4.359103404094856 4.156736683482629 7.2633401413550605 3.4885454027088825 3.7814728230944366 3.3097308482390173 3.5051852700748145 4.165283250450361 4.412298714470108 3.147888171844363 4.001730966297915 4.513746665669458 3.50248906266206 3.5560978726150387 4.2651483415692315 4.374357999724039 3.976681020030867 4.19189946081755 3.8716001817751056 4.474143866741472 3.4144568874435213 4.006627842661807 4.5990920288915795 4.284589004839814 3.74864140969408 4.003515062106467 4.419051005181998 5.037647006518014 4.260882945146866 6.008285212299979 4.880709018193272 4.039097167358622 4.856497185915108 3.6818752748349275 4.524927360113976 4.194752285450986 5.062692873551529 4.365810042517169 3.713395495471427 3.624569712822929 4.116613276519189 5.994958609625783 3.556074960315685 3.693034718646323 3.688864980905478 3.2185257335275965 4.306255043426974 4.120859351977406 3.938145955973393 7.396106994902592 5.551456875702992 4.088885266798198 4.681449332830789 3.1285928413556223 3.705234234256903 5.394239890644839 4.25953741673944 5.499602498614084 5.450652644365413 3.5190755022985 5.6998900444923875 4.176488877626616 5.149914198501772 4.023497399414171 3.3409397931203038 3.9047962892084183 3.809424129196341 4.043419421760131 3.3142500701373043 5.894597239123627 3.6401957541333654 3.855929046467931 4.133127920583242 3.474427197166976 3.717142088133902 3.7613981139652477 3.254284596402591 4.635260279294606 4.499182973354532 6.168928168116825 3.2337274082295773 3.3892698943487667 4.2478175032913 3.392712588041251 3.4011504351595634 3.3287905430905878 3.178333918122976 3.3724026140649994 3.5255489246977962 3.588470071438674 3.630916699699405 3.607798336943037 3.579983963785073 3.2711723259110177 3.442504910612381 3.8979963885121456 5.167467509811233 4.2931453170519065 3.9147374962751065 4.2892073541856135 4.125402006309287 4.031761871341499 4.440416524051642 3.246883800497844 4.266116460990951 3.7131670420322025 5.028503906294947 3.2864108591149757 3.570144063934693 3.4705260268926255 5.396744794401927 4.892566600839045 4.751146768983746 5.3174695376395835 3.1978863817271015 4.405740286629402 4.272797879488792 3.307370560737453 5.315845141276403 3.624569740830677 4.480393973471762 5.623271073809852 4.6271564950729305 4.465931242701962 7.118593577498677 5.6456517200036105 3.498739098063212 3.684633385761427 4.156272672051004 4.568780001341243 4.280328337100316 4.005866863275735 3.5701139543671627 3.3470513802143547 5.260395020348282 4.596531266318095 3.82790844523949 4.205920843582873 3.6929485400632296 3.506604272340719 3.1883395347503742 3.855453034466791 3.4271189218192424 3.5445051982485745 3.7402240068307457 3.7799661721275357 4.015267756886729 6.472294537833424 3.819029540798862 4.176609873961766 3.2898024318321966 3.362979166401524 3.3327846034891118 3.6232749581028663 3.8915264810427965 4.550764179763702 3.5090225830171975 6.27009215722158 3.94408144409186 7.368543697557411 4.053841575749681 3.253884303327784 3.3938693719959323 3.825769573535578 3.4066674724088957 3.684927296215074 3.3653609375115967 3.5609468667252164 3.8282192096688297 3.7677302506894894 3.468019225322518 4.039173484382904 5.471165723939852 3.844739587058916 5.544112243819577 3.7797956186104678 3.6398104828637488 3.2894544734664906 4.034361952185681 3.7803597179268253 5.6030314376399994 5.651936825487741 5.136426490105868 3.533398898720189 4.663508873118862 3.689234373420408 3.78224654429023 4.30563394993152 3.422286183288767 3.6966626743998496 3.3893938174484113 3.8981499927403997 3.4379463958768945 3.070391988743801 4.1862062622483 3.6149674940972987 3.4197291197745967 3.138097520879847 4.058002653433075 4.023910258212472 3.7179993582310398 3.9111286200180304 3.659560462885691 4.00187689972874 3.8942265369350966 3.8851792992171577 3.5817325940227076 3.6522707998947537 4.055850938876088 3.3059056753092713 3.69699391356701 3.762414214856918 3.5770190267345 3.544305386245393 3.632463147581916 3.7184999479183034 3.6938968180492613 3.5060648166290216 3.9613237373126506 3.692920069685511 3.4454022491333474 4.004914676355202 3.6336079686781657 3.8552319819710634 3.6956424884113313 4.700603044941995 4.302776255359212 3.48178803210933 3.872331507031877 3.7830913062088882 3.082816209669618 5.420547843176117 3.4710852430588353 4.768987185690519 3.3110428957721485 4.386766668160807 3.3532593437036664 4.167395012284536 4.067111604295859 6.104928072778597 3.550576005829868 3.2855004180061025 3.339029520871322 3.241132268894784 3.2213905278429174 3.730234853414875 3.495104631839015 4.570904546548642 5.756683621773034 3.4465650807469417 4.097121859803475 4.0596191306250295 3.4535747985678436 3.5220147994981676 5.71880828607798 3.1855803250704513 3.7231989668052337 3.576428417153217 3.2438436823876673 4.26711914110237 3.5928526655893074 3.2521561474057377 3.8317378512981968 3.870769822793747 3.4556060957354275 5.003694942840469 6.597636138191357 4.770605144972643 3.6599916763836737 5.196513171089937 3.214311812185657 3.4011431486211117 3.385812272918121 3.5964126484175565 3.334414562543137 4.869215397322152 3.5516745391152584 5.2502646737026675 3.7319740372728423 3.364877980386657 4.132144285465492 4.307527808535967 3.481672086091206 4.071879229902349 5.707646091464229 3.76493041493301 3.161654007355858 3.6847701170082896 3.1874291658576683 3.212991173810307 3.1541383559631226 3.706228385830518 3.8446257985921592 3.336556154800729 3.8082962654793238 4.270578777260636 3.336523391626804 3.9321411068200383 4.143618228802311 3.7224206760230016 3.4319853662082616 3.854591679073722 3.5693825346551677 3.2758153096645595 3.27543462770726 3.2746140556561567 3.666673661815101 4.166375193820801 3.595968058001237 4.308587083493441 3.6224803544636113 3.9442869638532256 3.819492119785482 3.8320787521811943 5.473592856115268 5.829557356696338 3.593657298871172 3.3147007221196816 3.4329495490583573 3.6873114496973116 4.174391360062399 3.6733992561709607 5.525747290508279 3.6126641242105837 3.5723690090245976 5.85410081668419 3.7524100685072708 3.2540957973462414 3.554583642914607 3.59769910359687 3.6111236045765898 3.6175426420573356 3.433423982866822 3.818498240005223 3.66397017643793 3.1631764384969228 4.05690019241298 4.976131330107575 4.195435545994406 3.6904001262512405 4.079575556188587 3.5216171169353925 4.0548793044725535 4.312642606857555 3.690880317159971 3.7698203231982217 3.7175407989118225 4.013322952939843 3.2728037992216827 3.555469073603571 3.8595027876931933 3.84863151814536 3.7600495383767383 3.2573394937154703 3.37439283506004 3.78801534785942 3.188735650148039 3.6847822954252747 3.1543612717408687 3.487754514113308 3.6493634659369465 3.4134341875323146 3.6625010128267785 3.5629691015634215 3.314895445398076 3.403116713009083 3.5458286371478014 4.287871420611498 3.6680716064777275 4.256250012386821 3.603369808489034 4.1218761944726054 4.242532890006522 4.364637202439767 4.142465659616738 3.7931716392975754 3.7957550432933465 3.7854195739167737 4.612443000484234 4.365841790169729 3.812785619233726 3.3210644208845017 3.3103678882905188 3.170872638450308 3.9483346611399366 3.819055467985448 3.779532599110338 3.402612069669487 3.6601534598163377 3.876938516836483 3.8790112719304446 3.749260059086829 3.6872829892608996 4.645704129853469 4.062864306758725 5.327639043000036 3.7233973496258854 3.678379877254566 4.007955186730616 3.598491283744505 3.3235592512963272 3.524826979191159 3.4874652719580665 3.717370361496551 3.714479732289018 3.6341492053698508 3.6016900301368264 3.3412901709193985 3.897776589643717 7.823212824197997 3.8636266831770247 3.398320398295626 3.701314531346917 4.863009090198391 3.932401464053801 3.97222652761893 3.8022086110444397 4.01107606054418 5.284482852292912 4.145340066001996 3.8998016925673333 5.025964571808697 3.8117336172961966 3.930860413796333 6.236296774145026 3.8925447098274026 4.175010937475315 3.389668676729991 4.098786670221648 3.617167376353122 4.020507733776309 3.194160607255648 3.5364908785461684 3.7131085052383503 3.0428647746664774 3.1495828747788104 4.7482538131135446 3.3358453680879614 3.5896144205833993 3.4422794014488147 3.432100180887678 3.3475769404175453 3.2363343802190534 4.108119414192728 4.046157318858721 4.285357613675518 3.4800603967555492 3.492036426980137 3.3866216946799286 3.6828237226674836 3.712850358822714 3.972844763131126 3.417009937551234 3.1570885468367336 4.455134837909649 4.616827327300792 5.882458770307132 3.586406013755078 3.8201788042867313 3.4886984241061083 6.072148870596392 3.359108180783217 3.4644286162802156 5.341458691723906 3.8158889064458497 4.238650625681485 3.679128565696745 3.952937484173498 3.996053637564226 3.9642617465272445 3.7358972872447307 3.4560872196178734 3.7298142500918985 4.242476790869867 3.236797960143677 5.140263687923769 4.571532460248875 3.8323953162597686 3.9519813364748293 4.3789224086232466 3.5437941099149475 3.7850697799117743 3.5627403516200467 3.676652245036207 3.293259669206139 3.6364440760847248 3.1242674091585383 3.603158990743338 3.098712743793409 4.501321288383942 4.03079742793949 4.121192962131643 3.15802939313801 4.251972247852913 3.620151177202165 5.24341736503906 4.5907701626639925 7.301759024570758 3.928677728246711 3.6403709003896045 3.804649659642141 3.5242833065319297 3.9272713353359436 3.7871421951367674 4.34852301917101 3.5501698009393436 3.8700510632209273 3.576671674033017 3.5794495798834074 3.448095129328452 3.8668697645437478 3.7579778010791793 3.756859001311518 3.2564058641487654 3.892581508181948 3.354745343562147 5.586992614838905 3.9696991159018595 3.4620552250650243 6.002073974529064 3.7760258352092304 6.6240685415223135 3.8102699589308218 3.5190812867089725 3.398622451154391 3.4116061600881955 3.8773850785299433 3.4958239497725887 3.137945835392225 4.063570422564256 4.343233876913921 3.398037012201777 4.6566789438573615 5.304478725056768 3.5536665172411532 5.302381833543344 4.3093216732374255 3.871461009404388 4.073177563192388 3.803494442276879 3.4048657482321647 3.6807770197388603 3.2993988345398266 3.646225970405553 3.627383573634935 3.226131985430089 3.7531908422703206 3.411806167539088 6.388196376357129 4.434633086093001 3.5573157240650644 3.8607666462527175 4.095013786600846 3.757550232526702 4.822952033530873 4.487370365124686 4.266005216192351 4.099344561467981 3.782061690505307 4.073239954717717 4.556311246216863 3.6289656152617344 4.707803323998507 4.468404528537812 6.6595355538100565 3.042666610954289 3.704648824797659 3.840309605712463 3.351819684307804 4.720142400747736 3.7520135235116086 3.2278266734358896 4.064433636438693 3.467191386011883 3.5808431709740587 3.850519653038718 3.490003713653496 3.352027688924088 3.310256920803613 4.346219102525643 4.014707943996656 4.456725177377128 3.7623388833721116 4.423854878867763 3.4646215468385453 4.467998976479785 4.7135512848778 3.7377741486234783 3.3912504812601503 3.2018791966352786 4.400431260717076 5.401993754939119 3.2133362447770497 3.796949299226913 4.841507060496069 3.6837354958170887 4.110763417912234 3.7504084691303454 4.616683222237685 5.111301656306901 4.164062241106926 5.335651670878649 4.115132052571765 4.5043264404860945 4.19875292243835 3.1803388760398517 3.9587389849044614 3.690972853282001 3.3801724967554523 4.27903217738004 4.303970935770292 3.999924686590711 6.22781762079687 4.137295830364774 4.042595864642829 3.6406486039955386 3.9619016365550035 4.348969087903088 6.6265374545608395 3.1244314344845128 3.438216831162669 3.4670545929615146 3.6554523223195856 3.307273193879412 3.1174252922741066 3.4558165019554172 3.3980014277771886 4.275323437193218 4.727360807224033 5.444848919458094 4.363848969561087 4.9127173397030806 4.168369304349431 3.3592157890030583 4.1478749427754 4.0776810891552175 3.980631507048517 3.963535190863213 4.635033231084183 4.58416378698334 4.492317664840578 3.983474050515395 3.2970464210994765 3.93974379545578 3.7642303394652123 3.37102280611301 3.7286668829728224 3.3259071888607457 4.832079883571436 4.952754293704452 3.3458931758702173 3.8335382916343685 3.7724457627402717 3.139938994897191 4.002081470693113 3.6942018378396204 3.5484146237154395 6.478437474930144 3.535999803105639 5.268350633667153 3.240667691967811 3.2091453033222006 4.036614870193174 3.4319938284160814 3.555803451618191 3.2164911677304984 3.208265730945162 3.3688794813905543 3.436320395767008 3.896677556456982 4.130123643795608 3.047547858662025 4.139104577133617 4.522680092379811 3.8354220357689717 4.280902181093731 5.724780645871582 3.570734966536436 3.4903210404423084 3.6072080645692424 4.407492199727613 3.2066796675041145 3.263145229984516 3.2530725355804897 3.8748397603589146 3.3643529834554045 3.8432738411466336 3.17020134858137 4.770151795655565 4.359585898823151 4.041913594935939 4.202805972760716 3.239840982647435 3.8549469351066703 4.1035227632447215 3.6588352262444763 4.297229472002118 4.596255210041005 4.336415960110895 4.010918047581229 3.981916721333466 3.4654107561780956 3.3015510382388755 4.343240981758162 3.358979053129078 3.8646626292105517 4.084566751092583 3.893191763522076 4.017269805974789 3.8676982532732085 3.728283903428987 4.121162476477882 5.177179217992631 5.108558152861074 4.211674060127547 5.196057916950887 6.431583749153356 3.5876697579460677 3.61044088107841 4.277448643187264 4.078988745838355 3.9084311605223783 3.6998032459507137 3.6055541037580547 3.326291648955395 4.366811592325854 4.039403717885784 3.169808955541925
